<svg width="430" height="430" viewBox="0 0 430 430" fill="none" xmlns="http://www.w3.org/2000/svg">
<path d="M377.677 365.578C369.011 374.732 360.811 380.635 354.333 385.299C278.179 440.122 188.069 424.141 168.919 420.239C140.639 414.476 85.9744 403.336 46.4531 356.705C-13.3394 286.157 -4.0287 175.009 42.3503 101.639C50.8337 88.2182 95.6459 13.7304 186.726 1.78498C241.847 -5.44423 306.1 9.13625 352.631 48.2493C450.302 130.351 443.349 296.211 377.677 365.578Z" fill="url(#paint0_linear_857_13)"/>
<path d="M400.417 377.707C400.417 381.424 397.383 384.466 393.674 384.466H29.0154C25.3066 384.466 22.2719 381.424 22.2719 377.707L19.2376 167.45C19.2376 163.732 23.6032 156.474 31.6038 157.02L387.988 147.767C392.642 147.647 397.141 149.444 400.437 152.739C403.732 156.035 405.535 160.541 405.425 165.206L400.417 377.707Z" fill="url(#paint1_linear_857_13)"/>
<path d="M393.76 371.222C393.76 374.742 390.889 377.623 387.38 377.623H37.8093C34.3005 377.623 31.4295 374.743 31.4295 371.222L28.5661 180.349C28.9034 168.863 38.9402 164.734 45.0245 164.978L386.587 155.784C389.856 155.696 393.017 156.96 395.332 159.277C397.648 161.595 398.921 164.766 398.84 168.046L393.76 371.222Z" fill="url(#paint2_linear_857_13)"/>
<g opacity="0.66">
<path d="M34.6522 242.192C34.3696 242.192 34.1386 241.964 34.1346 241.68L33.2667 182.393C33.2843 178.433 34.5005 175.27 36.8813 172.981C41.2133 168.817 47.9916 169.028 48.2746 169.038L157.351 166.101C157.356 166.101 157.36 166.101 157.365 166.101C157.644 166.101 157.875 166.325 157.882 166.606C157.89 166.893 157.664 167.132 157.378 167.139L48.2722 170.076C47.972 170.067 41.6146 169.869 37.5976 173.731C35.427 175.817 34.3186 178.73 34.3018 182.388L35.1698 241.664C35.1738 241.951 34.9458 242.187 34.6597 242.191C34.6573 242.192 34.6548 242.192 34.6522 242.192Z" fill="white"/>
</g>
<path d="M44.1345 360.501C44.5038 344.755 44.3664 205.315 43.456 193.273C42.5456 181.23 61.4443 178.972 90.4595 177.616C119.475 176.261 364.288 170.896 370.592 170.388C384.76 169.248 385.953 190.245 386.276 235.892C386.467 262.962 386.544 305.297 386.575 335.171C386.595 354.409 370.793 369.96 351.409 369.781C271.485 369.04 82.1114 367.343 68.4921 367.745C51.1943 368.256 43.988 366.745 44.1345 360.501Z" fill="#1AB561"/>
<path d="M428.426 401.92H1.65663C0.790661 401.92 0.0820923 401.209 0.0820923 400.34V385.026C0.0820923 384.157 0.790661 383.446 1.65663 383.446H428.426C429.292 383.446 430 384.157 430 385.025V400.34C430 401.209 429.291 401.92 428.426 401.92Z" fill="url(#paint3_linear_857_13)"/>
<path d="M49.3428 199.028L53.0533 350.325C53.1748 355.28 56.9909 359.224 61.6201 359.18L124.332 358.582C128.98 358.538 132.714 354.49 132.697 349.514L132.167 195.818C132.149 190.663 128.124 186.548 123.313 186.767L57.421 189.763C52.8134 189.972 49.2217 194.092 49.3428 199.028Z" fill="#51DA90"/>
<path d="M140.749 196.934L143.755 350.181C143.853 355.164 147.581 359.143 152.098 359.087L368.438 356.426C373.003 356.37 376.633 352.219 376.52 347.184L373.059 193.004C372.947 188.019 369.204 184.051 364.684 184.127L148.799 187.721C144.258 187.797 140.651 191.924 140.749 196.934Z" fill="#51DA90"/>
<path d="M397.557 411.405C397.506 411.386 369.951 362.97 366.228 358.414C365.601 357.648 364.632 357.257 363.651 357.375L355.96 358.294L346.925 377.906L361.977 369.11C360.488 379.446 379.825 394.805 386.456 400.41C387.129 400.979 387.185 401.997 386.577 402.636L383.929 405.417C388.276 409.837 393.292 412.676 398.953 413.989L397.557 411.405Z" fill="url(#paint4_linear_857_13)"/>
<path d="M385.461 403.916C385.461 403.916 383.771 404.463 383.199 405.973C382.925 406.696 383.22 407.514 383.846 407.964C386.629 409.964 395.807 416.421 400.042 417.686C400.39 417.79 400.72 417.474 400.642 417.12C400.424 416.132 399.721 414.161 397.456 411.275L397.66 411.688C397.917 412.21 397.35 412.753 396.845 412.467C394.012 410.862 388.242 407.351 385.461 403.916Z" fill="url(#paint5_linear_857_13)"/>
<path d="M386.824 423.288C386.778 423.258 382.644 413.265 382.598 413.235C378.807 390.08 369.559 370.25 366.832 365.031C366.373 364.154 365.502 363.575 364.518 363.49L356.801 362.83L343.997 380.201L360.512 374.644C356.968 384.463 372.807 403.431 378.171 410.266C378.715 410.96 378.564 411.969 377.84 412.471L374.686 414.656C378.052 419.868 382.391 423.666 387.67 426.101L386.824 423.288Z" fill="url(#paint6_linear_857_13)"/>
<path d="M376.489 413.498C376.489 413.498 374.724 413.691 373.859 415.053C373.445 415.705 373.569 416.566 374.091 417.134C376.413 419.658 384.099 427.845 387.992 429.944C388.311 430.116 388.698 429.874 388.693 429.511C388.679 428.5 388.388 426.426 386.752 423.14L386.868 423.586C387.015 424.149 386.35 424.566 385.913 424.183C383.462 422.037 378.52 417.426 376.489 413.498Z" fill="url(#paint7_linear_857_13)"/>
<path d="M320.677 359.171C320.677 359.171 313.696 369.589 313.123 374.342C312.55 379.094 315.053 380.738 322.361 381.343C344.105 383.147 354.824 376.608 354.824 376.608C356.312 367.093 357.37 364.672 369.793 359.498C369.793 359.498 354.08 360.75 350.918 359.518C347.755 358.287 320.677 359.171 320.677 359.171Z" fill="url(#paint8_linear_857_13)"/>
<path d="M348.516 300.8C348.516 300.8 343.654 295.028 338.484 302.11C337.548 303.393 333.952 302.335 332.634 305.019C331.953 306.406 330.483 307.193 328.968 306.913C325.196 306.215 319.03 306.156 315.986 312.087C313.663 316.614 315.456 319.263 317.779 320.774C319.485 321.883 320.094 324.136 319.063 325.893C318.073 327.579 317.887 329.862 320.442 332.609C326.168 338.766 337.502 328.702 337.502 328.702L346.501 307.367L348.516 300.8Z" fill="url(#paint9_linear_857_13)"/>
<path d="M339.557 357.791C339.557 357.791 347.687 350.024 351.689 344.88C353.852 342.099 354.532 338.438 353.531 335.056C351.704 328.88 348.457 322.484 348.161 321.488C347.707 319.962 338.591 320.026 338.591 320.026C338.591 320.026 320.654 331.706 313.606 351.492L321.521 353.965C321.521 353.965 326.205 346.081 330.832 341.069C330.832 341.069 322.825 351.682 322.543 356.027L339.557 357.791Z" fill="url(#paint10_linear_857_13)"/>
<path d="M355.047 360.856L348.938 354.188L341.883 356.094C341.883 356.094 333.658 357.372 328.951 356.094C324.244 354.815 324.244 354.815 324.244 354.815L313.606 351.492L311.935 356.23C311.511 357.433 311.937 358.768 312.974 359.507C313.894 360.163 314.973 360.884 315.66 361.186C317.061 361.801 347.932 361.38 347.932 361.38L355.047 360.856Z" fill="url(#paint11_linear_857_13)"/>
<path d="M344.856 309.03L338.73 320.461C339.134 322.956 345.398 323.026 346.366 321.536C346.464 321.385 346.52 321.209 346.558 321.032L350.223 313.395C350.38 312.65 348.345 310.14 347.675 309.783L345.24 308.482C344.302 307.981 348.215 307.942 344.856 309.03Z" fill="url(#paint12_linear_857_13)"/>
<path d="M357.256 306.347C357.256 306.347 357.948 310.209 354.922 315.119C351.897 320.029 348.884 319.807 347.354 318.056C345.823 316.305 343.99 313.389 344.824 308.491C345.658 303.594 356.211 301.422 357.256 306.347Z" fill="url(#paint13_linear_857_13)"/>
<path d="M348.486 309.024C348.486 309.024 353.385 302.568 357.146 308.196L357.083 310.14C357.083 310.14 361.974 309.91 361.443 305.388C360.913 300.865 356.92 297.775 351.384 299.321C345.849 300.866 342.614 302.626 341.989 306.482C341.364 310.338 344.502 309.708 344.502 309.708C344.502 309.708 345.701 307.047 347.148 306.865C348.596 306.684 348.073 308.788 348.073 308.788L348.486 309.024Z" fill="url(#paint14_linear_857_13)"/>
<path d="M347.362 308.851C347.362 308.851 349.9 305.547 347.59 304.862C345.28 304.176 345.366 308.099 345.517 309.558L347.362 308.851Z" fill="url(#paint15_linear_857_13)"/>
<path d="M334.826 363.496C334.848 363.497 334.869 363.497 334.891 363.497L362.988 363.466C363.683 363.466 364.245 362.9 364.245 362.203C364.244 361.506 363.678 360.93 362.986 360.943L334.888 360.973C334.194 360.974 333.631 361.539 333.632 362.236C333.633 362.912 334.162 363.463 334.826 363.496Z" fill="url(#paint16_linear_857_13)"/>
<path d="M388.247 337.9H364.847C363.121 337.9 361.55 338.899 360.813 340.466L349.996 363.48H379.075C380.188 363.48 381.187 362.798 381.596 361.76L389.985 340.464C390.469 339.233 389.566 337.9 388.247 337.9Z" fill="url(#paint17_linear_857_13)"/>
<path d="M371.761 349.7C371.254 351.281 371.629 352.816 372.598 353.129C373.567 353.442 374.764 352.414 375.271 350.833C375.778 349.253 375.404 347.718 374.435 347.405C373.465 347.092 372.269 348.119 371.761 349.7Z" fill="url(#paint18_linear_857_13)"/>
<path d="M238.483 395.315H48.4855C46.787 395.315 45.41 396.696 45.41 398.401C45.41 400.105 46.787 401.486 48.4855 401.486H238.483C240.181 401.486 241.558 400.105 241.558 398.401C241.558 396.696 240.181 395.315 238.483 395.315Z" fill="url(#paint19_linear_857_13)"/>
<path d="M211.571 363.942H75.3967C71.2915 363.942 67.9634 367.281 67.9634 371.4V395.315H219.004V371.4C219.005 367.281 215.677 363.942 211.571 363.942Z" fill="url(#paint20_linear_857_13)"/>
<path d="M201.497 350.615H85.4715C81.3662 350.615 78.0381 353.954 78.0381 358.073V363.941H208.93V358.073C208.93 353.954 205.602 350.615 201.497 350.615Z" fill="url(#paint21_linear_857_13)"/>
<path d="M178.434 350.616H108.534V313.255C108.534 312.179 109.403 311.306 110.476 311.306H176.492C177.565 311.306 178.434 312.179 178.434 313.255V350.616Z" fill="url(#paint22_linear_857_13)"/>
<path d="M99.2708 370.457H87.0651V395.314H99.2708V370.457Z" fill="url(#paint23_linear_857_13)"/>
<path d="M108.534 370.457H103.63V395.314H108.534V370.457Z" fill="url(#paint24_linear_857_13)"/>
<path d="M115.445 370.457H110.541V395.314H115.445V370.457Z" fill="url(#paint25_linear_857_13)"/>
<path d="M122.357 370.457H117.453V395.314H122.357V370.457Z" fill="url(#paint26_linear_857_13)"/>
<path d="M29.4962 198.847C27.7929 200.421 27.6449 203.067 29.1619 204.822L124.814 316.89C126.396 318.72 129.172 318.876 130.948 317.235L139.086 309.718L33.7422 194.925L29.4962 198.847Z" fill="url(#paint27_linear_857_13)"/>
<path d="M42.5946 162.842C39.3383 159.437 33.9655 159.27 30.5053 162.466L21.9266 170.391C18.4665 173.588 18.1897 178.974 21.304 182.511L135.434 313.091L159.358 290.99C161.298 289.198 161.387 286.154 159.554 284.252L42.5946 162.842Z" fill="url(#paint28_linear_857_13)"/>
<path d="M50.7797 190.203L49.8824 191.032C47.1041 193.598 46.9255 197.939 49.4837 200.726L109.711 266.356C112.269 269.144 116.595 269.323 119.374 266.756L120.271 265.927C123.049 263.361 123.228 259.02 120.67 256.233L60.4419 190.603C57.8839 187.815 53.558 187.636 50.7797 190.203Z" fill="url(#paint29_linear_857_13)"/>
<path d="M51.5899 189.465L49.0609 191.802L118.547 267.53L121.076 265.194L51.5899 189.465Z" fill="#91B3FA"/>
<path d="M144.277 333.444C161.116 333.444 174.767 319.747 174.767 302.852C174.767 285.956 161.116 272.259 144.277 272.259C127.437 272.259 113.786 285.956 113.786 302.852C113.786 319.747 127.437 333.444 144.277 333.444Z" fill="url(#paint30_linear_857_13)"/>
<path d="M144.276 326.22C157.14 326.22 167.567 315.758 167.567 302.851C167.567 289.945 157.14 279.483 144.276 279.483C131.413 279.483 120.985 289.945 120.985 302.851C120.985 315.758 131.413 326.22 144.276 326.22Z" fill="#91B3FA"/>
<path d="M28.186 170.131L34.2029 176.688C35.5162 178.119 37.7486 178.178 39.1353 176.818L123.076 93.4801C124.405 92.1764 124.461 90.0482 123.202 88.6759L120.063 85.2549L28.186 170.131Z" fill="url(#paint31_linear_857_13)"/>
<path d="M124.794 59.4931L131.136 66.4051C133.695 69.193 133.561 73.5218 130.836 76.1455L30.8861 173.073L13.1971 153.798C11.7626 152.234 11.8926 149.793 13.4849 148.392L115.094 58.9912C117.924 56.4823 122.235 56.7053 124.794 59.4931Z" fill="url(#paint32_linear_857_13)"/>
<path d="M95.8464 82.9184L40.9227 133.657C38.4927 135.902 38.3365 139.698 40.574 142.136C42.8116 144.575 46.5952 144.731 49.0252 142.486L103.949 91.7475C106.379 89.5027 106.535 85.7062 104.298 83.2682C102.06 80.83 98.2765 80.6735 95.8464 82.9184Z" fill="url(#paint33_linear_857_13)"/>
<path d="M39.6489 141.118L41.5186 143.156L105.246 84.292L103.376 82.2544L39.6489 141.118Z" fill="#91B3FA"/>
<path d="M24.4851 188.858C38.0078 188.858 48.9702 177.859 48.9702 164.291C48.9702 150.724 38.0078 139.725 24.4851 139.725C10.9623 139.725 0 150.724 0 164.291C0 177.859 10.9623 188.858 24.4851 188.858Z" fill="url(#paint34_linear_857_13)"/>
<path d="M42.9482 167.255C44.5742 157.02 37.6232 147.401 27.4227 145.77C17.2223 144.139 7.63512 151.113 6.00918 161.348C4.38324 171.582 11.3342 181.201 21.5347 182.832C31.7351 184.463 41.3223 177.489 42.9482 167.255Z" fill="#91B3FA"/>
<path d="M199.913 100.652L196.093 106.953C194.552 109.494 191.765 110.636 189.822 109.521L118.114 68.8618L128.767 51.29C129.631 49.8649 131.209 49.2583 132.259 49.9468L199.303 93.8837C201.183 95.1024 201.454 98.1102 199.913 100.652Z" fill="url(#paint35_linear_857_13)"/>
<path d="M127.756 80.2556C138.371 80.2556 146.976 71.6219 146.976 60.9718C146.976 50.3216 138.371 41.688 127.756 41.688C117.141 41.688 108.536 50.3216 108.536 60.9718C108.536 71.6219 117.141 80.2556 127.756 80.2556Z" fill="url(#paint36_linear_857_13)"/>
<path d="M134.716 73.9393C141.853 70.0775 144.518 61.1426 140.668 53.9827C136.819 46.8229 127.914 44.1493 120.777 48.0111C113.641 51.873 110.976 60.8079 114.825 67.9677C118.674 75.1276 127.58 77.8012 134.716 73.9393Z" fill="#91B3FA"/>
<path d="M208.781 95.8949L201.805 91.6741C201.647 91.5782 201.441 91.6293 201.345 91.7885L188.664 112.887C188.568 113.046 188.619 113.253 188.778 113.348L195.754 117.569C195.912 117.665 196.118 117.614 196.214 117.455L208.895 96.3565C208.991 96.1975 208.94 95.9908 208.781 95.8949Z" fill="url(#paint37_linear_857_13)"/>
<path d="M218.076 104.492L234.134 92.8604L256.385 120.012L253.011 124.009L232.894 102.356L220.467 111.483L218.076 104.492Z" fill="url(#paint38_linear_857_13)"/>
<path d="M207.851 121.666L205.377 141.382L239.793 147.954L241.671 143.068L213.088 135.737L215.112 120.419L207.851 121.666Z" fill="url(#paint39_linear_857_13)"/>
<path d="M202.666 121.152C205.969 123.867 210.581 124.802 214.875 123.207C221.315 120.815 224.604 113.638 222.22 107.175C221.013 103.905 218.585 101.445 215.645 100.122L202.666 121.152Z" fill="url(#paint40_linear_857_13)"/>
<path d="M195.601 116.775L193.569 120.155C193.203 120.765 193.433 121.578 194.083 121.971L200.329 125.75C200.979 126.144 201.804 125.968 202.17 125.359L218.367 98.4107C218.734 97.801 218.504 96.9879 217.853 96.5945L211.607 92.8155C210.957 92.4221 210.133 92.5973 209.766 93.207L207.905 96.3037L195.601 116.775Z" fill="url(#paint41_linear_857_13)"/>
<g opacity="0.64">
<path d="M174.83 291.327C174.401 291.327 173.98 291.112 173.734 290.72C173.362 290.125 172.995 289.525 172.637 288.92C172.272 288.304 172.474 287.507 173.089 287.141C173.703 286.774 174.497 286.977 174.862 287.593C175.21 288.18 175.563 288.761 175.925 289.336C176.305 289.943 176.124 290.745 175.519 291.127C175.305 291.262 175.066 291.327 174.83 291.327Z" fill="white"/>
<path d="M170.579 283.671C170.1 283.671 169.641 283.404 169.416 282.944C168.804 281.692 168.219 280.412 167.675 279.142C167.394 278.483 167.698 277.72 168.355 277.437C169.01 277.154 169.772 277.459 170.054 278.118C170.58 279.349 171.147 280.588 171.74 281.801C172.054 282.445 171.789 283.223 171.147 283.538C170.964 283.629 170.77 283.671 170.579 283.671ZM166.481 273.68C165.941 273.68 165.437 273.338 165.255 272.796C164.815 271.487 164.399 270.143 164.02 268.802C163.825 268.112 164.224 267.394 164.912 267.198C165.601 267.001 166.315 267.403 166.51 268.093C166.878 269.394 167.281 270.697 167.707 271.966C167.936 272.646 167.572 273.382 166.895 273.611C166.757 273.657 166.618 273.68 166.481 273.68ZM163.7 263.24C163.096 263.24 162.556 262.813 162.433 262.196C162.162 260.836 161.921 259.45 161.716 258.077C161.61 257.368 162.098 256.707 162.804 256.601C163.507 256.493 164.17 256.983 164.276 257.692C164.474 259.024 164.708 260.369 164.971 261.688C165.111 262.391 164.656 263.075 163.955 263.215C163.87 263.232 163.784 263.24 163.7 263.24ZM162.271 252.531C161.597 252.531 161.029 252.006 160.982 251.321C160.887 249.938 160.826 248.532 160.799 247.142C160.785 246.426 161.354 245.833 162.068 245.819C162.076 245.819 162.085 245.819 162.094 245.819C162.797 245.819 163.373 246.384 163.387 247.092C163.413 248.439 163.472 249.802 163.564 251.143C163.613 251.859 163.075 252.478 162.361 252.527C162.332 252.53 162.301 252.531 162.271 252.531ZM162.236 241.727C162.209 241.727 162.182 241.726 162.155 241.724C161.442 241.68 160.899 241.064 160.943 240.349C161.029 238.959 161.15 237.554 161.305 236.174C161.384 235.461 162.026 234.949 162.735 235.028C163.445 235.108 163.956 235.75 163.876 236.463C163.727 237.801 163.609 239.162 163.526 240.509C163.484 241.197 162.914 241.727 162.236 241.727ZM163.601 231.002C163.519 231.002 163.436 230.994 163.353 230.978C162.651 230.841 162.193 230.159 162.33 229.455C162.595 228.087 162.898 226.711 163.229 225.365C163.4 224.669 164.102 224.244 164.796 224.416C165.49 224.588 165.913 225.292 165.741 225.988C165.421 227.292 165.127 228.626 164.87 229.952C164.75 230.572 164.208 231.002 163.601 231.002ZM166.343 220.549C166.207 220.549 166.069 220.528 165.932 220.482C165.255 220.254 164.889 219.519 165.116 218.839C165.555 217.519 166.033 216.195 166.535 214.903C166.795 214.236 167.543 213.905 168.212 214.166C168.877 214.426 169.206 215.179 168.947 215.847C168.459 217.099 167.996 218.383 167.57 219.662C167.389 220.206 166.884 220.549 166.343 220.549ZM170.41 210.542C170.22 210.542 170.027 210.5 169.845 210.412C169.203 210.099 168.935 209.322 169.246 208.677C169.852 207.425 170.495 206.174 171.159 204.959C171.502 204.33 172.289 204.1 172.916 204.445C173.542 204.789 173.772 205.578 173.429 206.207C172.785 207.385 172.161 208.597 171.575 209.811C171.351 210.273 170.89 210.542 170.41 210.542ZM175.726 201.146C175.482 201.146 175.236 201.077 175.017 200.933C174.419 200.54 174.253 199.735 174.645 199.135C175.408 197.969 176.206 196.812 177.018 195.696C177.438 195.117 178.246 194.989 178.826 195.412C179.403 195.835 179.529 196.647 179.108 197.226C178.322 198.307 177.549 199.429 176.809 200.56C176.561 200.94 176.147 201.146 175.726 201.146ZM182.201 192.514C181.902 192.514 181.603 192.411 181.358 192.201C180.817 191.734 180.754 190.914 181.22 190.37C182.12 189.318 183.059 188.274 184.011 187.267C184.504 186.746 185.321 186.725 185.84 187.218C186.358 187.712 186.38 188.533 185.889 189.054C184.966 190.03 184.056 191.041 183.183 192.061C182.927 192.36 182.565 192.514 182.201 192.514ZM189.729 184.792C189.374 184.792 189.021 184.647 188.765 184.361C188.288 183.828 188.332 183.007 188.863 182.528C189.89 181.603 190.954 180.69 192.029 179.814C192.584 179.361 193.398 179.446 193.849 180.002C194.3 180.559 194.216 181.377 193.661 181.829C192.62 182.678 191.588 183.563 190.593 184.46C190.346 184.682 190.036 184.792 189.729 184.792ZM198.185 178.114C197.773 178.114 197.368 177.917 197.117 177.55C196.712 176.959 196.862 176.151 197.451 175.745C198.589 174.961 199.762 174.195 200.939 173.468C201.547 173.092 202.344 173.281 202.719 173.892C203.094 174.502 202.905 175.302 202.296 175.678C201.156 176.384 200.018 177.126 198.916 177.886C198.692 178.04 198.438 178.114 198.185 178.114ZM207.43 172.596C206.959 172.596 206.505 172.337 206.276 171.887C205.952 171.248 206.205 170.466 206.842 170.141C208.078 169.509 209.343 168.901 210.602 168.335C211.254 168.042 212.019 168.334 212.312 168.988C212.604 169.643 212.313 170.411 211.661 170.704C210.441 171.253 209.215 171.842 208.017 172.454C207.829 172.55 207.628 172.596 207.43 172.596ZM217.319 168.328C216.787 168.328 216.288 167.996 216.1 167.464C215.86 166.788 216.213 166.046 216.886 165.806C218.189 165.342 219.521 164.904 220.847 164.505C221.531 164.299 222.253 164.688 222.459 165.375C222.664 166.061 222.276 166.785 221.592 166.992C220.307 167.379 219.015 167.804 217.753 168.253C217.609 168.304 217.463 168.328 217.319 168.328ZM263.819 165.583C263.723 165.583 263.626 165.572 263.528 165.55C262.221 165.248 260.889 164.976 259.569 164.74C258.865 164.614 258.397 163.94 258.522 163.234C258.647 162.528 259.322 162.059 260.023 162.184C261.385 162.427 262.759 162.708 264.108 163.019C264.804 163.18 265.24 163.876 265.08 164.575C264.942 165.176 264.409 165.583 263.819 165.583ZM227.674 165.378C227.078 165.378 226.542 164.962 226.41 164.354C226.259 163.653 226.703 162.962 227.401 162.81L227.908 162.702C229.091 162.453 230.299 162.225 231.496 162.026C232.202 161.908 232.867 162.387 232.984 163.094C233.101 163.801 232.625 164.47 231.92 164.587C230.758 164.781 229.587 165.001 228.439 165.243L227.949 165.348C227.856 165.368 227.764 165.378 227.674 165.378ZM253.189 163.854C253.148 163.854 253.106 163.852 253.064 163.848C251.732 163.72 250.376 163.624 249.034 163.562C248.32 163.53 247.767 162.922 247.8 162.206C247.833 161.49 248.429 160.942 249.152 160.968C250.537 161.032 251.936 161.131 253.311 161.263C254.023 161.331 254.544 161.966 254.476 162.679C254.412 163.351 253.848 163.854 253.189 163.854ZM238.324 163.775C237.659 163.775 237.093 163.263 237.036 162.586C236.976 161.872 237.504 161.243 238.217 161.183C239.597 161.066 240.997 160.981 242.378 160.933C243.076 160.904 243.692 161.468 243.717 162.185C243.742 162.901 243.183 163.503 242.469 163.528C241.131 163.575 239.773 163.656 238.435 163.77C238.398 163.773 238.361 163.775 238.324 163.775Z" fill="white"/>
<path d="M272.262 168.01C272.122 168.01 271.98 167.987 271.84 167.938C271.199 167.716 270.554 167.503 269.907 167.297C269.226 167.08 268.848 166.35 269.065 165.667C269.28 164.983 270.007 164.606 270.689 164.821C271.357 165.034 272.022 165.255 272.684 165.484C273.36 165.718 273.719 166.456 273.486 167.134C273.301 167.672 272.799 168.01 272.262 168.01Z" fill="white"/>
</g>
<g opacity="0.64">
<path d="M320.063 210.492C319.582 210.492 319.121 210.222 318.897 209.759C318.601 209.145 318.297 208.535 317.987 207.931C317.66 207.293 317.909 206.51 318.544 206.182C319.18 205.854 319.96 206.104 320.288 206.741C320.608 207.365 320.922 207.994 321.227 208.628C321.538 209.274 321.269 210.05 320.625 210.362C320.444 210.45 320.252 210.492 320.063 210.492Z" fill="white"/>
<path d="M245.156 330.354C244.679 330.354 244.203 330.35 243.727 330.342C243.013 330.33 242.443 329.74 242.455 329.022C242.467 328.305 243.049 327.717 243.771 327.746C245.092 327.768 246.428 327.759 247.748 327.717C248.462 327.693 249.06 328.256 249.083 328.973C249.106 329.689 248.545 330.289 247.831 330.312C246.945 330.34 246.044 330.354 245.156 330.354ZM237.198 329.969C237.156 329.969 237.114 329.967 237.071 329.962C235.712 329.831 234.342 329.663 232.997 329.465C232.29 329.361 231.801 328.701 231.905 327.992C232.009 327.282 232.665 326.791 233.373 326.896C234.676 327.088 236.004 327.25 237.321 327.378C238.032 327.447 238.553 328.082 238.484 328.795C238.419 329.466 237.856 329.969 237.198 329.969ZM254.335 329.843C253.685 329.843 253.124 329.352 253.051 328.688C252.971 327.975 253.483 327.333 254.193 327.254C255.504 327.108 256.83 326.927 258.135 326.717C258.839 326.602 259.505 327.085 259.618 327.793C259.731 328.501 259.25 329.168 258.545 329.281C257.199 329.498 255.831 329.684 254.48 329.835C254.431 329.84 254.383 329.843 254.335 329.843ZM226.735 328.266C226.64 328.266 226.543 328.255 226.446 328.233C225.118 327.928 223.78 327.586 222.469 327.217C221.781 327.023 221.38 326.306 221.573 325.616C221.766 324.926 222.481 324.522 223.169 324.717C224.44 325.075 225.737 325.406 227.023 325.702C227.72 325.862 228.155 326.558 227.996 327.257C227.858 327.859 227.325 328.266 226.735 328.266ZM264.775 328.003C264.19 328.003 263.661 327.604 263.518 327.009C263.35 326.312 263.778 325.611 264.472 325.443C265.756 325.132 267.049 324.786 268.315 324.414C269.002 324.214 269.72 324.608 269.92 325.296C270.121 325.984 269.728 326.705 269.042 326.906C267.736 327.29 266.403 327.646 265.079 327.967C264.977 327.992 264.875 328.003 264.775 328.003ZM274.898 324.863C274.377 324.863 273.885 324.544 273.689 324.026C273.435 323.355 273.771 322.606 274.438 322.351C275.67 321.881 276.908 321.373 278.119 320.842C278.772 320.555 279.536 320.854 279.823 321.512C280.109 322.169 279.81 322.934 279.156 323.221C277.907 323.769 276.629 324.293 275.358 324.778C275.207 324.836 275.051 324.863 274.898 324.863ZM284.542 320.455C284.08 320.455 283.633 320.206 283.4 319.769C283.062 319.137 283.3 318.35 283.929 318.012C285.092 317.387 286.255 316.725 287.387 316.043C287.999 315.674 288.795 315.873 289.162 316.488C289.53 317.103 289.332 317.9 288.719 318.269C287.551 318.973 286.351 319.656 285.151 320.301C284.957 320.405 284.748 320.455 284.542 320.455ZM293.541 314.845C293.137 314.845 292.739 314.656 292.487 314.301C292.071 313.718 292.206 312.907 292.787 312.49C293.861 311.721 294.929 310.915 295.961 310.097C296.522 309.652 297.336 309.747 297.778 310.31C298.222 310.872 298.127 311.689 297.566 312.133C296.5 312.979 295.399 313.809 294.292 314.603C294.064 314.767 293.801 314.845 293.541 314.845ZM301.746 308.13C301.398 308.13 301.052 307.99 300.797 307.714C300.311 307.189 300.341 306.367 300.865 305.88C301.831 304.98 302.789 304.044 303.712 303.098C304.211 302.585 305.031 302.576 305.541 303.077C306.052 303.578 306.062 304.4 305.562 304.913C304.61 305.89 303.622 306.855 302.625 307.783C302.376 308.015 302.061 308.13 301.746 308.13ZM309.037 300.419C308.744 300.419 308.45 300.32 308.208 300.117C307.659 299.657 307.586 298.839 308.044 298.288C308.889 297.273 309.721 296.222 310.517 295.166C310.948 294.594 311.76 294.48 312.33 294.912C312.9 295.345 313.013 296.159 312.582 296.731C311.761 297.821 310.902 298.905 310.031 299.952C309.775 300.26 309.407 300.419 309.037 300.419ZM315.297 291.842C315.058 291.842 314.817 291.776 314.601 291.637C313.999 291.251 313.823 290.448 314.208 289.844C314.919 288.728 315.612 287.58 316.269 286.431C316.624 285.809 317.416 285.594 318.035 285.95C318.655 286.307 318.869 287.1 318.514 287.722C317.837 288.907 317.122 290.092 316.388 291.243C316.141 291.63 315.724 291.842 315.297 291.842ZM320.427 282.538C320.242 282.538 320.054 282.498 319.875 282.413C319.229 282.107 318.953 281.333 319.259 280.685C319.825 279.484 320.367 278.256 320.873 277.035C321.146 276.373 321.903 276.059 322.564 276.334C323.224 276.609 323.537 277.369 323.263 278.031C322.742 279.29 322.182 280.556 321.598 281.795C321.377 282.264 320.912 282.538 320.427 282.538ZM324.344 272.655C324.211 272.655 324.076 272.634 323.943 272.59C323.263 272.368 322.892 271.636 323.113 270.954C323.521 269.697 323.904 268.41 324.252 267.128C324.44 266.436 325.153 266.03 325.84 266.216C326.53 266.404 326.937 267.117 326.749 267.809C326.391 269.132 325.995 270.461 325.574 271.758C325.396 272.307 324.889 272.655 324.344 272.655ZM326.973 262.349C326.893 262.349 326.813 262.342 326.731 262.327C326.029 262.194 325.567 261.515 325.7 260.81C325.946 259.504 326.162 258.177 326.342 256.867C326.44 256.157 327.094 255.659 327.801 255.759C328.509 255.857 329.004 256.512 328.906 257.223C328.72 258.575 328.497 259.944 328.243 261.292C328.126 261.915 327.583 262.349 326.973 262.349ZM328.265 251.788C328.241 251.788 328.215 251.787 328.19 251.786C327.477 251.744 326.932 251.13 326.973 250.414C327.049 249.094 327.093 247.752 327.105 246.427C327.112 245.714 327.689 245.141 328.399 245.141C328.402 245.141 328.406 245.141 328.411 245.141C329.125 245.148 329.699 245.734 329.693 246.451C329.681 247.818 329.635 249.202 329.556 250.564C329.516 251.255 328.946 251.788 328.265 251.788ZM328.195 241.155C327.522 241.155 326.954 240.632 326.906 239.948C326.813 238.625 326.686 237.289 326.53 235.975C326.446 235.263 326.952 234.617 327.662 234.532C328.376 234.447 329.016 234.956 329.1 235.668C329.261 237.023 329.392 238.401 329.488 239.765C329.538 240.481 329.001 241.101 328.288 241.152C328.257 241.154 328.226 241.155 328.195 241.155ZM326.781 230.616C326.177 230.616 325.637 230.189 325.514 229.572C325.46 229.301 325.405 229.031 325.348 228.761C325.134 227.735 324.897 226.698 324.643 225.676C324.47 224.981 324.892 224.276 325.585 224.102C326.278 223.928 326.98 224.352 327.154 225.048C327.416 226.101 327.66 227.171 327.881 228.227C327.939 228.505 327.996 228.785 328.052 229.064C328.192 229.767 327.737 230.451 327.036 230.591C326.95 230.608 326.865 230.616 326.781 230.616ZM324.061 220.339C323.519 220.339 323.015 219.995 322.833 219.452C322.415 218.196 321.959 216.933 321.481 215.7C321.221 215.032 321.55 214.279 322.217 214.019C322.884 213.759 323.632 214.089 323.892 214.758C324.386 216.03 324.856 217.332 325.288 218.628C325.514 219.308 325.149 220.044 324.471 220.271C324.335 220.317 324.196 220.339 324.061 220.339Z" fill="white"/>
<path d="M216.537 325.221C216.387 325.221 216.236 325.195 216.089 325.141C215.431 324.897 214.778 324.646 214.126 324.387C213.462 324.122 213.138 323.367 213.402 322.701C213.665 322.035 214.418 321.709 215.082 321.973C215.713 322.225 216.347 322.468 216.984 322.704C217.655 322.953 217.998 323.699 217.751 324.372C217.558 324.896 217.063 325.221 216.537 325.221Z" fill="white"/>
</g>
<path d="M214.41 301.745C214.758 301.99 215.224 301.985 215.568 301.735L225.395 294.573C230.662 296.686 236.302 297.972 242.131 298.296L248.023 308.942C248.23 309.316 248.65 309.517 249.069 309.443L263.416 306.9C263.835 306.825 264.161 306.492 264.228 306.071L266.128 294.042C271.494 291.735 276.353 288.588 280.579 284.792L292.257 288.142C292.666 288.26 293.105 288.104 293.349 287.754L301.702 275.777C301.946 275.427 301.942 274.96 301.691 274.615L294.553 264.755C296.66 259.471 297.942 253.812 298.264 247.964L308.876 242.052C309.248 241.844 309.448 241.423 309.374 241.002L306.839 226.608C306.766 226.187 306.434 225.86 306.013 225.793L294.025 223.887C291.725 218.503 288.588 213.628 284.805 209.388L288.144 197.671C288.261 197.26 288.105 196.82 287.757 196.575L275.82 188.195C275.471 187.95 275.006 187.954 274.661 188.205L264.834 195.367C259.568 193.253 253.927 191.967 248.099 191.644L242.206 180.997C242 180.623 241.58 180.423 241.16 180.497L226.814 183.04C226.394 183.114 226.068 183.447 226.002 183.869L224.101 195.897C218.736 198.204 213.876 201.351 209.65 205.147L197.972 201.797C197.563 201.68 197.124 201.836 196.88 202.186L188.528 214.162C188.284 214.512 188.288 214.979 188.538 215.325L195.676 225.184C193.569 230.468 192.288 236.128 191.965 241.975L181.354 247.888C180.982 248.095 180.781 248.516 180.855 248.937L183.39 263.331C183.464 263.752 183.796 264.079 184.216 264.146L196.204 266.053C198.504 271.436 201.641 276.312 205.424 280.552L202.085 292.268C201.968 292.679 202.124 293.119 202.473 293.364L214.41 301.745Z" fill="url(#paint42_linear_857_13)"/>
<path d="M214.41 301.745C214.758 301.99 215.224 301.985 215.568 301.735L225.395 294.573C230.662 296.686 236.302 297.972 242.131 298.296L248.023 308.942C248.23 309.316 248.65 309.517 249.069 309.443L263.416 306.9C263.835 306.825 264.161 306.492 264.228 306.071L266.128 294.042C271.494 291.735 276.353 288.588 280.579 284.792L292.257 288.142C292.666 288.26 293.105 288.104 293.349 287.754L301.702 275.777C301.946 275.427 301.942 274.96 301.691 274.615L294.553 264.755C296.66 259.471 297.942 253.812 298.264 247.964L308.876 242.052C309.248 241.844 309.448 241.423 309.374 241.002L306.839 226.608C306.766 226.187 306.434 225.86 306.013 225.793L294.025 223.887C291.725 218.503 288.588 213.628 284.805 209.388L288.144 197.671C288.261 197.26 288.105 196.82 287.757 196.575L275.82 188.195C275.471 187.95 275.006 187.954 274.661 188.205L264.834 195.367C259.568 193.253 253.927 191.967 248.099 191.644L242.206 180.997C242 180.623 241.58 180.423 241.16 180.497L226.814 183.04C226.394 183.114 226.068 183.447 226.002 183.869L224.101 195.897C218.736 198.204 213.876 201.351 209.65 205.147L197.972 201.797C197.563 201.68 197.124 201.836 196.88 202.186L188.528 214.162C188.284 214.512 188.288 214.979 188.538 215.325L195.676 225.184C193.569 230.468 192.288 236.128 191.965 241.975L181.354 247.888C180.982 248.095 180.781 248.516 180.855 248.937L183.39 263.331C183.464 263.752 183.796 264.079 184.216 264.146L196.204 266.053C198.504 271.436 201.641 276.312 205.424 280.552L202.085 292.268C201.968 292.679 202.124 293.119 202.473 293.364L214.41 301.745Z" fill="#91B3FA"/>
<path opacity="0.5" d="M245.136 258.987C239.799 258.987 234.694 255.905 232.37 250.713C230.841 247.297 230.729 243.489 232.055 239.988C233.381 236.489 235.987 233.716 239.391 232.182C246.417 229.016 254.704 232.175 257.861 239.226C261.017 246.277 257.867 254.59 250.839 257.757C248.987 258.592 247.046 258.987 245.136 258.987ZM245.098 233.029C243.47 233.029 241.818 233.366 240.239 234.077C237.339 235.384 235.12 237.745 233.99 240.727C232.861 243.708 232.956 246.952 234.258 249.862C236.948 255.868 244.005 258.56 249.991 255.862C255.978 253.165 258.661 246.084 255.972 240.078C253.992 235.655 249.643 233.029 245.098 233.029Z" fill="white"/>
<path opacity="0.5" d="M245.223 280.497C245.125 280.497 245.028 280.497 244.931 280.496C244.587 280.493 244.243 280.485 243.9 280.472C243.621 280.462 243.402 280.232 243.402 279.954C243.402 279.947 243.402 279.94 243.402 279.934C243.413 279.647 243.656 279.427 243.938 279.434C246.387 279.527 248.861 279.354 251.296 278.923C252.092 278.782 252.88 278.614 253.657 278.421C253.66 278.42 253.663 278.419 253.666 278.419C253.667 278.418 253.668 278.418 253.67 278.417C253.673 278.417 253.676 278.416 253.679 278.415C253.68 278.415 253.682 278.415 253.683 278.414C261.789 276.391 268.814 271.558 273.65 264.625C277.768 258.72 279.915 251.841 279.916 244.781C279.917 242.748 279.739 240.7 279.379 238.655C277.77 229.515 272.709 221.55 265.129 216.228C257.548 210.906 248.357 208.864 239.246 210.479C222.468 213.453 210.632 228.15 210.631 244.683C210.631 246.683 210.804 248.71 211.162 250.746C212.255 256.951 214.996 262.731 219.09 267.462C219.175 267.56 219.217 267.681 219.217 267.802C219.217 267.947 219.157 268.092 219.039 268.195C218.824 268.382 218.496 268.359 218.309 268.143C214.092 263.27 211.269 257.317 210.143 250.927C209.774 248.83 209.596 246.742 209.596 244.683C209.596 227.655 221.787 212.519 239.066 209.457C248.447 207.795 257.916 209.896 265.723 215.377C273.529 220.858 278.741 229.061 280.398 238.475C280.769 240.58 280.952 242.69 280.952 244.784C280.95 252.054 278.739 259.139 274.498 265.22C269.035 273.053 260.859 278.283 251.476 279.946C249.407 280.312 247.31 280.497 245.223 280.497Z" fill="white"/>
<g opacity="0.64">
<path d="M327.524 228.78C327.3 228.78 327.093 228.633 327.027 228.406C326.904 227.986 326.789 227.563 326.681 227.136C326.61 226.858 326.777 226.576 327.054 226.505C327.33 226.434 327.613 226.602 327.683 226.88C327.789 227.294 327.901 227.705 328.02 228.114C328.101 228.389 327.944 228.677 327.67 228.758C327.621 228.773 327.572 228.78 327.524 228.78Z" fill="white"/>
<path d="M326.63 224.968C326.384 224.968 326.165 224.791 326.121 224.54C325.967 223.67 325.842 222.785 325.751 221.909C325.722 221.624 325.929 221.369 326.213 221.339C326.497 221.311 326.751 221.517 326.781 221.802C326.869 222.653 326.99 223.513 327.14 224.358C327.19 224.64 327.002 224.91 326.721 224.96C326.691 224.966 326.66 224.968 326.63 224.968ZM326.091 219.762C325.813 219.762 325.583 219.54 325.574 219.259C325.562 218.879 325.556 218.498 325.556 218.115C325.556 217.612 325.566 217.108 325.587 216.602C325.598 216.316 325.817 216.087 326.125 216.105C326.411 216.116 326.633 216.358 326.621 216.645C326.602 217.136 326.591 217.627 326.591 218.115C326.591 218.487 326.598 218.857 326.609 219.227C326.618 219.513 326.393 219.753 326.108 219.762C326.102 219.762 326.097 219.762 326.091 219.762ZM326.304 214.532C326.285 214.532 326.265 214.531 326.246 214.529C325.962 214.497 325.757 214.24 325.789 213.955C325.888 213.074 326.02 212.191 326.18 211.328C326.232 211.047 326.5 210.858 326.784 210.913C327.064 210.965 327.25 211.236 327.198 211.518C327.042 212.356 326.915 213.215 326.819 214.071C326.789 214.336 326.564 214.532 326.304 214.532ZM327.258 209.388C327.214 209.388 327.17 209.383 327.126 209.371C326.849 209.299 326.684 209.015 326.757 208.737C326.979 207.888 327.235 207.033 327.52 206.195C327.612 205.923 327.907 205.779 328.177 205.871C328.448 205.964 328.592 206.259 328.5 206.53C328.223 207.344 327.973 208.176 327.757 209.001C327.697 209.234 327.487 209.388 327.258 209.388ZM328.944 204.437C328.876 204.437 328.807 204.424 328.741 204.395C328.478 204.283 328.356 203.978 328.468 203.714C328.811 202.905 329.189 202.095 329.593 201.308C329.724 201.053 330.036 200.952 330.29 201.083C330.544 201.214 330.644 201.527 330.514 201.782C330.122 202.548 329.754 203.335 329.42 204.121C329.336 204.318 329.145 204.437 328.944 204.437ZM331.332 199.78C331.24 199.78 331.147 199.755 331.063 199.704C330.819 199.554 330.742 199.235 330.891 198.99C331.349 198.237 331.841 197.491 332.352 196.773C332.519 196.541 332.841 196.487 333.074 196.653C333.307 196.82 333.361 197.145 333.194 197.378C332.697 198.075 332.219 198.799 331.774 199.531C331.677 199.691 331.507 199.78 331.332 199.78ZM334.368 195.52C334.251 195.52 334.134 195.481 334.038 195.401C333.818 195.217 333.787 194.89 333.97 194.669C334.53 193.992 335.123 193.326 335.733 192.688C335.932 192.481 336.26 192.474 336.465 192.673C336.671 192.872 336.678 193.201 336.48 193.408C335.887 194.027 335.311 194.675 334.766 195.333C334.664 195.456 334.516 195.52 334.368 195.52ZM337.982 191.745C337.841 191.745 337.7 191.688 337.598 191.574C337.406 191.361 337.423 191.032 337.636 190.84C338.288 190.251 338.97 189.677 339.664 189.135C339.889 188.958 340.215 188.999 340.391 189.225C340.566 189.452 340.526 189.778 340.3 189.954C339.626 190.481 338.962 191.039 338.328 191.612C338.23 191.701 338.106 191.745 337.982 191.745ZM342.098 188.531C341.93 188.531 341.767 188.45 341.667 188.3C341.508 188.062 341.572 187.739 341.81 187.58C342.539 187.09 343.297 186.621 344.061 186.184C344.308 186.042 344.625 186.129 344.767 186.379C344.908 186.628 344.821 186.945 344.573 187.087C343.83 187.511 343.094 187.968 342.385 188.443C342.296 188.502 342.197 188.531 342.098 188.531ZM379.314 186.824C379.23 186.824 379.145 186.804 379.067 186.761C378.316 186.351 377.541 185.964 376.763 185.611C376.503 185.493 376.388 185.185 376.505 184.923C376.623 184.663 376.927 184.546 377.191 184.665C377.991 185.029 378.789 185.427 379.561 185.849C379.812 185.986 379.906 186.301 379.769 186.553C379.675 186.726 379.497 186.824 379.314 186.824ZM346.63 185.944C346.437 185.944 346.251 185.835 346.163 185.648C346.039 185.389 346.149 185.079 346.407 184.956C347.2 184.576 348.017 184.222 348.835 183.901C349.099 183.798 349.401 183.929 349.505 184.196C349.609 184.464 349.477 184.765 349.211 184.869C348.417 185.18 347.623 185.525 346.853 185.894C346.78 185.928 346.705 185.944 346.63 185.944ZM374.561 184.664C374.502 184.664 374.441 184.654 374.383 184.632C373.581 184.336 372.758 184.066 371.937 183.83C371.663 183.751 371.504 183.464 371.583 183.188C371.661 182.912 371.95 182.754 372.223 182.832C373.068 183.075 373.915 183.352 374.74 183.657C375.008 183.756 375.146 184.054 375.047 184.324C374.97 184.534 374.772 184.664 374.561 184.664ZM351.484 184.043C351.263 184.043 351.058 183.899 350.99 183.676C350.906 183.402 351.059 183.112 351.332 183.027C352.171 182.767 353.031 182.535 353.888 182.336C354.167 182.274 354.445 182.447 354.509 182.726C354.573 183.005 354.399 183.284 354.12 183.349C353.287 183.541 352.452 183.767 351.637 184.02C351.586 184.035 351.535 184.043 351.484 184.043ZM369.546 183.22C369.511 183.22 369.476 183.217 369.44 183.209C368.604 183.034 367.75 182.886 366.904 182.771C366.62 182.733 366.422 182.471 366.46 182.187C366.498 181.903 366.757 181.701 367.042 181.742C367.914 181.86 368.792 182.012 369.652 182.193C369.932 182.252 370.111 182.527 370.052 182.808C370.001 183.052 369.786 183.22 369.546 183.22ZM356.567 182.868C356.316 182.868 356.095 182.685 356.056 182.428C356.012 182.144 356.206 181.879 356.489 181.835C357.355 181.701 358.239 181.597 359.117 181.525C359.403 181.502 359.652 181.715 359.675 182.001C359.698 182.287 359.486 182.537 359.201 182.56C358.348 182.63 357.488 182.731 356.646 182.862C356.619 182.866 356.593 182.868 356.567 182.868ZM364.375 182.517C364.364 182.517 364.353 182.517 364.343 182.516C363.588 182.469 362.824 182.444 362.071 182.444L361.77 182.446C361.768 182.446 361.767 182.446 361.766 182.446C361.482 182.446 361.25 182.216 361.248 181.93C361.246 181.644 361.476 181.41 361.762 181.407L362.069 181.406C362.846 181.406 363.632 181.431 364.407 181.48C364.693 181.498 364.91 181.745 364.892 182.031C364.874 182.306 364.646 182.517 364.375 182.517Z" fill="white"/>
<path d="M382.656 188.895C382.554 188.895 382.451 188.865 382.361 188.802C382.012 188.559 381.659 188.321 381.301 188.09C381.061 187.935 380.991 187.614 381.146 187.373C381.301 187.131 381.621 187.062 381.861 187.217C382.229 187.455 382.593 187.699 382.952 187.949C383.187 188.113 383.245 188.437 383.082 188.672C382.981 188.817 382.82 188.895 382.656 188.895Z" fill="white"/>
</g>
<g opacity="0.64">
<path d="M397.658 212.661C397.409 212.661 397.19 212.481 397.148 212.227C397.078 211.806 397.001 211.386 396.917 210.969C396.859 210.689 397.04 210.414 397.32 210.357C397.598 210.301 397.874 210.481 397.931 210.762C398.018 211.191 398.097 211.623 398.169 212.057C398.216 212.34 398.025 212.607 397.743 212.654C397.714 212.659 397.686 212.661 397.658 212.661Z" fill="white"/>
<path d="M363.015 254.741C362.734 254.741 362.504 254.516 362.497 254.234C362.491 253.947 362.717 253.709 363.003 253.702C363.842 253.682 364.692 253.631 365.529 253.551C365.817 253.523 366.066 253.734 366.093 254.019C366.12 254.304 365.912 254.558 365.627 254.585C364.766 254.668 363.891 254.72 363.027 254.74C363.023 254.741 363.019 254.741 363.015 254.741ZM360.448 254.712C360.439 254.712 360.431 254.711 360.423 254.711C360.144 254.698 359.865 254.682 359.585 254.662C358.997 254.622 358.405 254.566 357.826 254.498C357.542 254.465 357.339 254.206 357.372 253.922C357.406 253.637 357.664 253.432 357.947 253.466C358.509 253.533 359.085 253.587 359.657 253.626C359.928 253.645 360.2 253.661 360.471 253.674C360.757 253.687 360.977 253.93 360.964 254.217C360.951 254.495 360.722 254.712 360.448 254.712ZM368.123 254.251C367.875 254.251 367.656 254.072 367.613 253.818C367.566 253.535 367.756 253.268 368.038 253.22C368.868 253.079 369.702 252.907 370.517 252.708C370.795 252.639 371.074 252.811 371.142 253.09C371.21 253.369 371.039 253.649 370.761 253.717C369.923 253.922 369.064 254.099 368.21 254.244C368.181 254.249 368.151 254.251 368.123 254.251ZM355.347 254.111C355.315 254.111 355.283 254.108 355.25 254.102C354.397 253.94 353.542 253.745 352.709 253.523C352.433 253.45 352.268 253.166 352.341 252.888C352.415 252.611 352.697 252.448 352.974 252.519C353.783 252.735 354.614 252.924 355.443 253.082C355.724 253.135 355.909 253.407 355.855 253.689C355.808 253.938 355.591 254.111 355.347 254.111ZM373.108 253.034C372.889 253.034 372.685 252.894 372.615 252.673C372.527 252.4 372.677 252.108 372.949 252.02C373.747 251.764 374.547 251.474 375.328 251.16C375.592 251.052 375.895 251.182 376.001 251.448C376.108 251.714 375.979 252.016 375.714 252.123C374.91 252.447 374.086 252.745 373.266 253.009C373.213 253.026 373.16 253.034 373.108 253.034ZM350.383 252.792C350.327 252.792 350.271 252.783 350.215 252.764C349.397 252.482 348.579 252.167 347.782 251.827C347.52 251.714 347.397 251.409 347.509 251.145C347.621 250.882 347.925 250.759 348.188 250.871C348.962 251.202 349.757 251.508 350.551 251.781C350.821 251.875 350.965 252.17 350.872 252.441C350.799 252.657 350.598 252.792 350.383 252.792ZM377.867 251.115C377.675 251.115 377.491 251.008 377.402 250.824C377.276 250.566 377.383 250.255 377.64 250.129C378.395 249.76 379.146 249.359 379.873 248.937C380.119 248.793 380.437 248.878 380.58 249.126C380.723 249.374 380.639 249.692 380.391 249.836C379.644 250.27 378.87 250.683 378.094 251.063C378.02 251.099 377.943 251.115 377.867 251.115ZM345.659 250.774C345.58 250.774 345.499 250.756 345.423 250.717C344.655 250.321 343.89 249.891 343.149 249.44C342.905 249.291 342.827 248.972 342.976 248.727C343.124 248.482 343.442 248.403 343.687 248.553C344.406 248.99 345.149 249.408 345.897 249.793C346.151 249.924 346.251 250.237 346.121 250.492C346.028 250.671 345.847 250.774 345.659 250.774ZM382.307 248.537C382.141 248.537 381.978 248.457 381.878 248.309C381.718 248.071 381.779 247.748 382.017 247.587C382.712 247.115 383.399 246.611 384.06 246.089C384.284 245.911 384.61 245.951 384.787 246.176C384.963 246.401 384.925 246.728 384.7 246.905C384.02 247.442 383.313 247.961 382.597 248.447C382.508 248.508 382.407 248.537 382.307 248.537ZM386.341 245.352C386.2 245.352 386.06 245.295 385.958 245.182C385.766 244.97 385.781 244.642 385.993 244.449C386.613 243.883 387.223 243.286 387.805 242.675C388.003 242.468 388.331 242.46 388.537 242.658C388.743 242.856 388.751 243.185 388.553 243.393C387.954 244.021 387.327 244.635 386.689 245.217C386.59 245.308 386.465 245.352 386.341 245.352ZM389.886 241.628C389.769 241.628 389.653 241.589 389.556 241.509C389.336 241.326 389.305 240.998 389.487 240.777C390.024 240.126 390.544 239.449 391.032 238.764C391.197 238.531 391.522 238.477 391.753 238.643C391.986 238.809 392.04 239.134 391.874 239.367C391.372 240.072 390.837 240.77 390.285 241.44C390.182 241.564 390.035 241.628 389.886 241.628ZM392.87 237.434C392.778 237.434 392.685 237.41 392.601 237.358C392.357 237.209 392.28 236.889 392.429 236.644C392.869 235.922 393.287 235.177 393.672 234.429C393.803 234.175 394.116 234.075 394.369 234.207C394.624 234.339 394.723 234.652 394.592 234.907C394.196 235.675 393.765 236.442 393.313 237.185C393.215 237.346 393.044 237.434 392.87 237.434ZM395.229 232.856C395.161 232.856 395.092 232.842 395.025 232.814C394.763 232.701 394.641 232.395 394.753 232.132C395.084 231.358 395.392 230.561 395.667 229.764C395.761 229.493 396.054 229.348 396.325 229.443C396.596 229.537 396.739 229.833 396.645 230.104C396.362 230.924 396.045 231.744 395.705 232.541C395.621 232.738 395.43 232.856 395.229 232.856ZM396.909 227.99C396.865 227.99 396.82 227.984 396.775 227.972C396.499 227.898 396.335 227.613 396.409 227.336C396.626 226.524 396.817 225.691 396.976 224.862C397.03 224.58 397.301 224.397 397.582 224.45C397.863 224.504 398.046 224.776 397.993 225.058C397.829 225.912 397.632 226.769 397.409 227.605C397.346 227.837 397.138 227.99 396.909 227.99ZM397.88 222.934C397.86 222.934 397.839 222.933 397.818 222.93C397.535 222.896 397.332 222.638 397.366 222.353C397.438 221.749 397.496 221.138 397.537 220.538C397.553 220.299 397.568 220.06 397.579 219.821C397.594 219.535 397.837 219.316 398.123 219.329C398.408 219.343 398.628 219.587 398.613 219.874C398.601 220.119 398.586 220.364 398.57 220.609C398.527 221.227 398.468 221.856 398.394 222.477C398.362 222.74 398.139 222.934 397.88 222.934ZM398.132 217.79C397.851 217.79 397.621 217.565 397.615 217.282C397.597 216.44 397.549 215.586 397.471 214.746C397.445 214.46 397.655 214.207 397.939 214.181C398.222 214.153 398.476 214.364 398.503 214.65C398.582 215.515 398.632 216.393 398.65 217.26C398.656 217.547 398.429 217.784 398.144 217.79C398.14 217.79 398.136 217.79 398.132 217.79Z" fill="white"/>
<path d="M341.25 248.083C341.146 248.083 341.041 248.052 340.95 247.987C340.594 247.733 340.242 247.472 339.895 247.205C339.668 247.031 339.625 246.705 339.799 246.477C339.973 246.25 340.298 246.207 340.525 246.381C340.862 246.64 341.203 246.893 341.55 247.14C341.783 247.307 341.838 247.631 341.672 247.865C341.571 248.007 341.412 248.083 341.25 248.083Z" fill="white"/>
</g>
<path d="M342.65 237.832C342.766 237.975 342.961 238.029 343.134 237.965L348.074 236.142C350.022 237.647 352.222 238.851 354.615 239.676L355.819 244.813C355.862 244.993 356.013 245.127 356.197 245.145L362.478 245.784C362.662 245.802 362.837 245.702 362.914 245.534L365.122 240.743C367.63 240.417 370.027 239.68 372.235 238.597L376.711 241.377C376.868 241.474 377.069 241.461 377.212 241.344L382.103 237.339C382.246 237.222 382.3 237.027 382.236 236.853L380.419 231.897C381.919 229.943 383.119 227.735 383.941 225.335L389.062 224.126C389.241 224.083 389.374 223.931 389.393 223.747L390.029 217.445C390.048 217.261 389.948 217.085 389.78 217.007L385.006 214.793C384.68 212.276 383.945 209.871 382.867 207.655L385.637 203.165C385.734 203.007 385.721 202.805 385.604 202.662L381.613 197.754C381.496 197.611 381.302 197.557 381.128 197.621L376.188 199.444C374.241 197.939 372.04 196.735 369.648 195.91L368.443 190.773C368.401 190.593 368.249 190.459 368.066 190.44L361.784 189.802C361.601 189.783 361.426 189.884 361.348 190.052L359.141 194.842C356.632 195.169 354.236 195.906 352.027 196.988L347.552 194.209C347.395 194.111 347.194 194.124 347.051 194.242L342.159 198.247C342.016 198.364 341.963 198.559 342.027 198.732L343.843 203.689C342.343 205.643 341.143 207.851 340.321 210.251L335.201 211.46C335.021 211.502 334.888 211.654 334.87 211.839L334.233 218.141C334.215 218.325 334.315 218.501 334.482 218.578L339.257 220.793C339.583 223.31 340.317 225.714 341.396 227.93L338.626 232.421C338.528 232.578 338.541 232.78 338.658 232.923L342.65 237.832Z" fill="url(#paint43_linear_857_13)"/>
<path d="M342.65 237.832C342.766 237.975 342.961 238.029 343.134 237.965L348.074 236.142C350.022 237.647 352.222 238.851 354.615 239.676L355.819 244.813C355.862 244.993 356.013 245.127 356.197 245.145L362.478 245.784C362.662 245.802 362.837 245.702 362.914 245.534L365.122 240.743C367.63 240.417 370.027 239.68 372.235 238.597L376.711 241.377C376.868 241.474 377.069 241.461 377.212 241.344L382.103 237.339C382.246 237.222 382.3 237.027 382.236 236.853L380.419 231.897C381.919 229.943 383.119 227.735 383.941 225.335L389.062 224.126C389.241 224.083 389.374 223.931 389.393 223.747L390.029 217.445C390.048 217.261 389.948 217.085 389.78 217.007L385.006 214.793C384.68 212.276 383.945 209.871 382.867 207.655L385.637 203.165C385.734 203.007 385.721 202.805 385.604 202.662L381.613 197.754C381.496 197.611 381.302 197.557 381.128 197.621L376.188 199.444C374.241 197.939 372.04 196.735 369.648 195.91L368.443 190.773C368.401 190.593 368.249 190.459 368.066 190.44L361.784 189.802C361.601 189.783 361.426 189.884 361.348 190.052L359.141 194.842C356.632 195.169 354.236 195.906 352.027 196.988L347.552 194.209C347.395 194.111 347.194 194.124 347.051 194.242L342.159 198.247C342.016 198.364 341.963 198.559 342.027 198.732L343.843 203.689C342.343 205.643 341.143 207.851 340.321 210.251L335.201 211.46C335.021 211.502 334.888 211.654 334.87 211.839L334.233 218.141C334.215 218.325 334.315 218.501 334.482 218.578L339.257 220.793C339.583 223.31 340.317 225.714 341.396 227.93L338.626 232.421C338.528 232.578 338.541 232.78 338.658 232.923L342.65 237.832Z" fill="#91B3FA"/>
<path opacity="0.5" d="M362.119 223.938C360.813 223.938 359.547 223.52 358.479 222.724C357.166 221.746 356.312 220.312 356.073 218.689C355.581 215.337 357.898 212.209 361.239 211.715C364.581 211.221 367.698 213.546 368.19 216.897C368.429 218.521 368.023 220.141 367.047 221.458C366.071 222.775 364.643 223.632 363.024 223.871C362.722 223.916 362.419 223.938 362.119 223.938ZM362.135 212.687C361.889 212.687 361.64 212.705 361.389 212.742C358.614 213.153 356.688 215.753 357.097 218.537C357.296 219.887 358.006 221.078 359.097 221.891C360.188 222.704 361.527 223.043 362.874 222.844C364.218 222.645 365.405 221.933 366.216 220.838C367.027 219.744 367.365 218.398 367.166 217.049C366.794 214.515 364.615 212.687 362.135 212.687Z" fill="white"/>
<path opacity="0.5" d="M362.257 233.506C361.721 233.506 361.181 233.478 360.641 233.424C359.625 233.32 358.621 233.119 357.653 232.826C357.637 232.821 357.621 232.816 357.605 232.811C357.523 232.786 357.44 232.76 357.358 232.733C357.14 232.662 357.001 232.458 357.001 232.239C357.001 232.186 357.009 232.132 357.026 232.079C357.114 231.806 357.405 231.657 357.678 231.745C358.667 232.066 359.698 232.283 360.745 232.39C360.944 232.41 361.144 232.426 361.342 232.439C363.933 232.596 366.466 232.079 368.745 230.945C369.674 230.482 370.559 229.918 371.388 229.256C371.437 229.218 371.485 229.179 371.533 229.14C374.579 226.646 376.474 223.112 376.87 219.188C376.921 218.68 376.947 218.173 376.947 217.67C376.946 214.282 375.794 211.024 373.63 208.364C371.145 205.308 367.622 203.406 363.711 203.009C355.633 202.189 348.404 208.111 347.586 216.211C347.536 216.711 347.511 217.211 347.511 217.709C347.511 219.87 347.983 222.008 348.9 223.965C348.933 224.036 348.949 224.112 348.949 224.185C348.949 224.381 348.839 224.568 348.651 224.656C348.393 224.779 348.084 224.666 347.962 224.407C346.981 222.31 346.476 220.023 346.476 217.71C346.476 217.176 346.503 216.641 346.556 216.107C347.432 207.436 355.174 201.098 363.816 201.975C368.002 202.401 371.772 204.436 374.432 207.707C376.749 210.555 377.981 214.041 377.982 217.668C377.982 218.207 377.955 218.749 377.9 219.292C377.476 223.492 375.447 227.275 372.187 229.944C369.349 232.269 365.872 233.506 362.257 233.506Z" fill="white"/>
<g opacity="0.64">
<path d="M257.428 160.386C256.868 160.386 256.353 160.019 256.187 159.453C255.988 158.775 255.801 158.084 255.63 157.401C255.455 156.706 255.876 156 256.569 155.825C257.264 155.65 257.965 156.072 258.14 156.767C258.303 157.418 258.482 158.076 258.671 158.723C258.871 159.411 258.479 160.132 257.793 160.334C257.671 160.369 257.549 160.386 257.428 160.386Z" fill="white"/>
<path d="M255.661 151.725C255.014 151.725 254.455 151.24 254.377 150.58C254.21 149.171 254.097 147.739 254.041 146.323C254.013 145.607 254.568 145.003 255.283 144.974C255.992 144.94 256.599 145.503 256.627 146.22C256.681 147.568 256.788 148.932 256.947 150.274C257.032 150.986 256.525 151.632 255.815 151.716C255.763 151.722 255.711 151.725 255.661 151.725ZM255.49 140.801C255.453 140.801 255.415 140.8 255.377 140.797C254.666 140.735 254.138 140.107 254.199 139.392C254.32 137.975 254.497 136.55 254.725 135.158C254.842 134.45 255.511 133.972 256.212 134.087C256.917 134.204 257.395 134.872 257.279 135.579C257.062 136.906 256.893 138.263 256.777 139.614C256.719 140.291 256.154 140.801 255.49 140.801ZM257.516 130.071C257.393 130.071 257.269 130.054 257.146 130.017C256.461 129.812 256.071 129.088 256.276 128.401C256.679 127.045 257.142 125.686 257.652 124.362C257.909 123.694 258.656 123.36 259.325 123.618C259.992 123.877 260.323 124.628 260.066 125.297C259.581 126.559 259.14 127.853 258.755 129.144C258.588 129.707 258.073 130.071 257.516 130.071ZM261.69 119.98C261.481 119.98 261.27 119.93 261.074 119.823C260.446 119.481 260.213 118.693 260.553 118.063C261.228 116.814 261.959 115.579 262.728 114.391C263.117 113.789 263.919 113.618 264.517 114.008C265.117 114.399 265.288 115.202 264.899 115.804C264.167 116.935 263.471 118.112 262.829 119.3C262.594 119.734 262.149 119.98 261.69 119.98ZM267.838 110.96C267.542 110.96 267.245 110.859 267.002 110.652C266.457 110.189 266.389 109.37 266.851 108.823C267.763 107.741 268.73 106.681 269.724 105.674C270.227 105.164 271.046 105.16 271.554 105.664C272.062 106.169 272.066 106.991 271.564 107.501C270.616 108.46 269.695 109.47 268.826 110.5C268.57 110.804 268.205 110.96 267.838 110.96ZM275.683 103.384C275.299 103.384 274.919 103.213 274.663 102.886C274.223 102.321 274.322 101.505 274.885 101.063C275.997 100.189 277.157 99.3483 278.333 98.5642C278.928 98.1674 279.731 98.3292 280.127 98.9269C280.523 99.5241 280.361 100.33 279.766 100.727C278.645 101.474 277.54 102.275 276.48 103.107C276.243 103.294 275.962 103.384 275.683 103.384ZM284.892 97.5632C284.415 97.5632 283.957 97.2981 283.731 96.8407C283.414 96.1981 283.676 95.4191 284.317 95.1012C285.585 94.4713 286.891 93.8852 288.199 93.3588C288.865 93.0917 289.616 93.4153 289.882 94.0809C290.148 94.7462 289.826 95.5021 289.163 95.7688C287.916 96.2701 286.672 96.8282 285.465 97.428C285.281 97.5199 285.084 97.5632 284.892 97.5632ZM331.079 97.1242C330.894 97.1242 330.706 97.0843 330.528 97.0002C329.311 96.4245 328.055 95.8904 326.797 95.413C326.128 95.1595 325.791 94.4101 326.045 93.7393C326.297 93.0684 327.043 92.7303 327.713 92.9842C329.034 93.4858 330.353 94.0467 331.631 94.651C332.278 94.9568 332.555 95.7305 332.25 96.3791C332.029 96.8489 331.564 97.1242 331.079 97.1242ZM295.089 93.7481C294.514 93.7481 293.988 93.3601 293.837 92.7751C293.658 92.0811 294.073 91.3726 294.765 91.1927C296.133 90.8371 297.532 90.5319 298.924 90.2852C299.625 90.1604 300.298 90.6315 300.423 91.3378C300.547 92.0441 300.078 92.7175 299.373 92.8423C298.049 93.0772 296.716 93.3679 295.414 93.7062C295.306 93.7347 295.197 93.7481 295.089 93.7481ZM320.804 93.5115C320.705 93.5115 320.604 93.5001 320.503 93.476C319.194 93.1634 317.855 92.8988 316.527 92.6896C315.82 92.5785 315.338 91.9145 315.449 91.2059C315.559 90.4974 316.226 90.0154 316.927 90.1243C318.323 90.3437 319.727 90.6213 321.103 90.9498C321.798 91.1157 322.227 91.8157 322.062 92.5134C321.92 93.1101 321.39 93.5115 320.804 93.5115ZM305.852 92.1126C305.165 92.1126 304.593 91.5713 304.56 90.8757C304.526 90.1596 305.078 89.5516 305.792 89.5176C306.648 89.4765 307.539 89.4502 308.378 89.4565C308.932 89.4565 309.489 89.4648 310.047 89.4819C310.762 89.5039 311.323 90.1026 311.301 90.8196C311.279 91.5362 310.67 92.0875 309.968 92.0775C309.431 92.0607 308.897 92.063 308.363 92.0532C307.549 92.0532 306.725 92.0727 305.914 92.1112C305.893 92.1121 305.873 92.1126 305.852 92.1126Z" fill="white"/>
<path d="M338.736 101.565C338.481 101.565 338.223 101.49 337.998 101.333C337.449 100.95 336.884 100.572 336.319 100.209C335.716 99.8228 335.54 99.0199 335.925 98.4156C336.31 97.811 337.11 97.6351 337.712 98.0208C338.306 98.4019 338.9 98.799 339.476 99.201C340.063 99.6106 340.207 100.42 339.799 101.008C339.548 101.371 339.145 101.565 338.736 101.565Z" fill="white"/>
</g>
<g opacity="0.64">
<path d="M360.886 136.776C360.263 136.776 359.714 136.323 359.61 135.685C359.504 135.027 359.382 134.357 359.248 133.693C359.105 132.991 359.558 132.305 360.258 132.162C360.956 132.021 361.642 132.473 361.784 133.176C361.925 133.874 362.054 134.578 362.165 135.27C362.28 135.978 361.8 136.644 361.095 136.759C361.025 136.77 360.955 136.776 360.886 136.776Z" fill="white"/>
<path d="M308.027 198.687C308.023 198.687 308.019 198.687 308.015 198.687C306.908 198.677 305.785 198.633 304.676 198.557C304.393 198.537 304.112 198.516 303.832 198.492C303.12 198.431 302.592 197.802 302.653 197.088C302.714 196.373 303.341 195.845 304.052 195.904C304.318 195.927 304.586 195.948 304.854 195.966C305.912 196.039 306.983 196.081 308.038 196.09C308.752 196.097 309.327 196.683 309.32 197.4C309.314 198.113 308.736 198.687 308.027 198.687ZM314.654 198.329C314.006 198.329 313.447 197.843 313.37 197.182C313.287 196.47 313.795 195.825 314.505 195.742C315.821 195.587 317.146 195.379 318.443 195.124C319.144 194.986 319.825 195.444 319.962 196.149C320.1 196.852 319.643 197.534 318.942 197.672C317.579 197.941 316.187 198.159 314.806 198.32C314.754 198.327 314.704 198.329 314.654 198.329ZM297.374 197.526C297.285 197.526 297.195 197.517 297.105 197.498C295.743 197.209 294.376 196.863 293.044 196.471C292.358 196.269 291.966 195.547 292.167 194.859C292.369 194.171 293.089 193.778 293.773 193.979C295.041 194.353 296.342 194.682 297.64 194.958C298.339 195.106 298.786 195.795 298.639 196.496C298.51 197.107 297.973 197.526 297.374 197.526ZM325.114 196.006C324.571 196.006 324.066 195.661 323.886 195.116C323.661 194.435 324.029 193.7 324.707 193.475C325.964 193.058 327.219 192.586 328.439 192.073C329.097 191.796 329.856 192.107 330.132 192.769C330.409 193.43 330.098 194.191 329.439 194.468C328.158 195.007 326.839 195.502 325.52 195.94C325.385 195.985 325.248 196.006 325.114 196.006ZM287.168 194.248C286.995 194.248 286.819 194.213 286.65 194.139C285.376 193.581 284.108 192.966 282.88 192.31C282.249 191.973 282.01 191.187 282.345 190.554C282.681 189.921 283.465 189.681 284.096 190.017C285.265 190.642 286.473 191.228 287.686 191.759C288.341 192.047 288.64 192.812 288.354 193.469C288.142 193.957 287.666 194.248 287.168 194.248ZM334.886 191.617C334.438 191.617 334.002 191.383 333.763 190.965C333.407 190.344 333.62 189.55 334.24 189.193C335.386 188.532 336.522 187.817 337.617 187.067C338.208 186.662 339.012 186.816 339.415 187.408C339.818 188 339.666 188.808 339.076 189.212C337.926 189.999 336.733 190.75 335.53 191.444C335.326 191.561 335.105 191.617 334.886 191.617ZM343.588 185.351C343.23 185.351 342.873 185.202 342.617 184.911C342.145 184.374 342.196 183.553 342.732 183.079C343.725 182.2 344.696 181.272 345.62 180.319C346.117 179.805 346.937 179.793 347.45 180.293C347.962 180.793 347.973 181.615 347.475 182.129C346.506 183.129 345.486 184.104 344.444 185.026C344.198 185.244 343.893 185.351 343.588 185.351ZM350.87 177.467C350.598 177.467 350.324 177.381 350.091 177.204C349.521 176.772 349.407 175.958 349.838 175.386C350.637 174.324 351.405 173.219 352.118 172.102C352.504 171.498 353.306 171.323 353.906 171.709C354.508 172.096 354.682 172.899 354.297 173.503C353.548 174.676 352.743 175.836 351.903 176.951C351.649 177.289 351.262 177.467 350.87 177.467ZM356.432 168.276C356.245 168.276 356.056 168.235 355.877 168.15C355.231 167.841 354.957 167.067 355.264 166.419C355.833 165.22 356.363 163.982 356.838 162.741C357.093 162.071 357.842 161.737 358.51 161.994C359.177 162.251 359.51 163.002 359.254 163.671C358.755 164.975 358.199 166.275 357.602 167.535C357.38 168.002 356.916 168.276 356.432 168.276ZM360.032 158.15C359.93 158.15 359.826 158.138 359.722 158.112C359.028 157.941 358.604 157.238 358.774 156.541C359.09 155.254 359.359 153.936 359.576 152.623C359.693 151.916 360.355 151.436 361.064 151.554C361.769 151.671 362.245 152.34 362.129 153.047C361.902 154.425 361.619 155.809 361.288 157.161C361.142 157.753 360.614 158.15 360.032 158.15ZM361.53 147.508C361.512 147.508 361.494 147.507 361.477 147.507C360.762 147.478 360.207 146.874 360.236 146.157C360.264 145.446 360.279 144.728 360.279 144.023C360.279 143.398 360.268 142.775 360.246 142.155C360.22 141.438 360.778 140.836 361.492 140.81C362.213 140.787 362.806 141.345 362.832 142.061C362.855 142.705 362.867 143.365 362.867 144.023C362.867 144.763 362.851 145.516 362.822 146.261C362.794 146.96 362.22 147.508 361.53 147.508Z" fill="white"/>
<path d="M277.803 188.95C277.545 188.95 277.285 188.872 277.058 188.712C276.484 188.305 275.91 187.881 275.35 187.451C274.783 187.015 274.676 186.2 275.111 185.631C275.545 185.062 276.357 184.953 276.925 185.39C277.457 185.8 278.004 186.204 278.551 186.591C279.135 187.004 279.274 187.814 278.861 188.4C278.61 188.758 278.209 188.95 277.803 188.95Z" fill="white"/>
</g>
<path d="M279.737 173.204C279.909 173.416 280.195 173.495 280.451 173.401L287.736 170.712C290.608 172.932 293.854 174.708 297.382 175.924L299.159 183.5C299.221 183.766 299.444 183.963 299.715 183.991L308.979 184.932C309.25 184.959 309.508 184.811 309.622 184.564L312.877 177.499C316.577 177.017 320.111 175.93 323.368 174.334L329.969 178.433C330.2 178.577 330.497 178.557 330.708 178.385L337.922 172.478C338.132 172.305 338.211 172.018 338.117 171.762L335.438 164.452C337.65 161.57 339.42 158.314 340.632 154.774L348.183 152.991C348.448 152.929 348.644 152.705 348.672 152.433L349.61 143.139C349.638 142.867 349.49 142.608 349.243 142.493L342.202 139.227C341.721 135.515 340.638 131.969 339.047 128.701L343.133 122.079C343.276 121.847 343.257 121.549 343.085 121.338L337.198 114.1C337.026 113.888 336.739 113.809 336.484 113.904L329.198 116.592C326.326 114.372 323.081 112.597 319.553 111.38L317.776 103.803C317.714 103.538 317.49 103.341 317.219 103.313L307.956 102.372C307.685 102.344 307.427 102.492 307.313 102.74L304.057 109.805C300.358 110.287 296.823 111.374 293.566 112.97L286.966 108.871C286.735 108.727 286.438 108.747 286.227 108.919L279.013 114.826C278.802 114.998 278.724 115.286 278.818 115.542L281.497 122.852C279.285 125.734 277.515 128.99 276.303 132.53L268.751 134.312C268.487 134.375 268.29 134.599 268.263 134.871L267.325 144.165C267.297 144.437 267.444 144.696 267.691 144.811L274.733 148.077C275.213 151.788 276.296 155.335 277.887 158.603L273.802 165.225C273.659 165.457 273.678 165.755 273.85 165.966L279.737 173.204Z" fill="url(#paint44_linear_857_13)"/>
<path d="M279.737 173.204C279.909 173.416 280.195 173.495 280.451 173.401L287.736 170.712C290.608 172.932 293.854 174.708 297.382 175.924L299.159 183.5C299.221 183.766 299.444 183.963 299.715 183.991L308.979 184.932C309.25 184.959 309.508 184.811 309.622 184.564L312.877 177.499C316.577 177.017 320.111 175.93 323.368 174.334L329.969 178.433C330.2 178.577 330.497 178.557 330.708 178.385L337.922 172.478C338.132 172.305 338.211 172.018 338.117 171.762L335.438 164.452C337.65 161.57 339.42 158.314 340.632 154.774L348.183 152.991C348.448 152.929 348.644 152.705 348.672 152.433L349.61 143.139C349.638 142.867 349.49 142.608 349.243 142.493L342.202 139.227C341.721 135.515 340.638 131.969 339.047 128.701L343.133 122.079C343.276 121.847 343.257 121.549 343.085 121.338L337.198 114.1C337.026 113.888 336.739 113.809 336.484 113.904L329.198 116.592C326.326 114.372 323.081 112.597 319.553 111.38L317.776 103.803C317.714 103.538 317.49 103.341 317.219 103.313L307.956 102.372C307.685 102.344 307.427 102.492 307.313 102.74L304.057 109.805C300.358 110.287 296.823 111.374 293.566 112.97L286.966 108.871C286.735 108.727 286.438 108.747 286.227 108.919L279.013 114.826C278.802 114.998 278.724 115.286 278.818 115.542L281.497 122.852C279.285 125.734 277.515 128.99 276.303 132.53L268.751 134.312C268.487 134.375 268.29 134.599 268.263 134.871L267.325 144.165C267.297 144.437 267.444 144.696 267.691 144.811L274.733 148.077C275.213 151.788 276.296 155.335 277.887 158.603L273.802 165.225C273.659 165.457 273.678 165.755 273.85 165.966L279.737 173.204Z" fill="#91B3FA"/>
<path opacity="0.5" d="M308.447 153.507C306.353 153.507 304.321 152.837 302.61 151.561C300.505 149.991 299.134 147.692 298.752 145.089C297.962 139.714 301.678 134.696 307.035 133.904C309.631 133.518 312.219 134.174 314.325 135.743C316.431 137.313 317.801 139.612 318.184 142.215C318.566 144.819 317.915 147.416 316.35 149.529C314.786 151.642 312.495 153.016 309.9 153.4C309.414 153.472 308.929 153.507 308.447 153.507ZM308.482 136.913C308.152 136.913 307.82 136.938 307.488 136.987C303.826 137.528 301.284 140.959 301.824 144.634C302.086 146.414 303.023 147.986 304.462 149.06C305.902 150.133 307.672 150.578 309.447 150.317C311.221 150.055 312.788 149.115 313.858 147.671C314.927 146.226 315.372 144.45 315.111 142.67C314.849 140.889 313.913 139.318 312.473 138.245C311.302 137.372 309.914 136.913 308.482 136.913Z" fill="white"/>
<path opacity="0.5" d="M308.653 166.578C307.87 166.578 307.083 166.538 306.294 166.458C304.662 166.292 303.05 165.954 301.504 165.451C301.285 165.38 301.146 165.176 301.146 164.957C301.146 164.904 301.154 164.85 301.171 164.797C301.259 164.524 301.55 164.375 301.823 164.463C303.3 164.943 304.839 165.267 306.398 165.425C312.235 166.018 317.945 164.296 322.488 160.577C327.03 156.858 329.857 151.586 330.448 145.734C330.524 144.982 330.561 144.234 330.561 143.494C330.559 132.342 322.114 122.752 310.822 121.604C298.782 120.379 287.992 129.214 286.772 141.295C286.697 142.04 286.659 142.786 286.66 143.529C286.66 146.753 287.364 149.94 288.731 152.86C288.765 152.931 288.78 153.006 288.78 153.081C288.78 153.276 288.67 153.462 288.482 153.551C288.224 153.672 287.916 153.561 287.794 153.301C286.362 150.243 285.625 146.905 285.624 143.53C285.624 142.751 285.663 141.97 285.742 141.19C287.02 128.539 298.322 119.291 310.926 120.57C322.751 121.772 331.594 131.815 331.596 143.493C331.596 144.268 331.557 145.051 331.478 145.838C330.859 151.967 327.899 157.487 323.142 161.382C319 164.773 313.927 166.578 308.653 166.578Z" fill="white"/>
<defs>
<linearGradient id="paint0_linear_857_13" x1="481.471" y1="550.979" x2="102.662" y2="82.0832" gradientUnits="userSpaceOnUse">
<stop stop-color="#DAE3FE"/>
<stop offset="1" stop-color="#E9EFFD"/>
</linearGradient>
<linearGradient id="paint1_linear_857_13" x1="204.508" y1="462.955" x2="216.231" y2="46.2184" gradientUnits="userSpaceOnUse">
<stop stop-color="#09005D"/>
<stop offset="1" stop-color="#1A0F91"/>
</linearGradient>
<linearGradient id="paint2_linear_857_13" x1="213.954" y1="266.915" x2="-169.995" y2="585.81" gradientUnits="userSpaceOnUse">
<stop stop-color="#89ECB6"/>
<stop offset="1" stop-color="#46EB92"/>
</linearGradient>
<linearGradient id="paint3_linear_857_13" x1="242.193" y1="114.58" x2="216.892" y2="372.01" gradientUnits="userSpaceOnUse">
<stop stop-color="#09005D"/>
<stop offset="1" stop-color="#1A0F91"/>
</linearGradient>
<linearGradient id="paint4_linear_857_13" x1="375.961" y1="387.824" x2="392.879" y2="368.906" gradientUnits="userSpaceOnUse">
<stop stop-color="#FEBBBA"/>
<stop offset="1" stop-color="#FF928E"/>
</linearGradient>
<linearGradient id="paint5_linear_857_13" x1="398.483" y1="395.722" x2="378.804" y2="443.194" gradientUnits="userSpaceOnUse">
<stop stop-color="#09005D"/>
<stop offset="1" stop-color="#1A0F91"/>
</linearGradient>
<linearGradient id="paint6_linear_857_13" x1="399.959" y1="377.052" x2="548.874" y2="284.139" gradientUnits="userSpaceOnUse">
<stop stop-color="#FEBBBA"/>
<stop offset="1" stop-color="#FF928E"/>
</linearGradient>
<linearGradient id="paint7_linear_857_13" x1="390.894" y1="408.12" x2="362.017" y2="450.587" gradientUnits="userSpaceOnUse">
<stop stop-color="#09005D"/>
<stop offset="1" stop-color="#1A0F91"/>
</linearGradient>
<linearGradient id="paint8_linear_857_13" x1="375.473" y1="340.621" x2="286.977" y2="404.17" gradientUnits="userSpaceOnUse">
<stop stop-color="#4F52FF"/>
<stop offset="1" stop-color="#4042E2"/>
</linearGradient>
<linearGradient id="paint9_linear_857_13" x1="355.961" y1="286.314" x2="337.001" y2="308.129" gradientUnits="userSpaceOnUse">
<stop stop-color="#09005D"/>
<stop offset="1" stop-color="#1A0F91"/>
</linearGradient>
<linearGradient id="paint10_linear_857_13" x1="377.163" y1="250.61" x2="314.712" y2="386.77" gradientUnits="userSpaceOnUse">
<stop stop-color="#4F52FF"/>
<stop offset="1" stop-color="#4042E2"/>
</linearGradient>
<linearGradient id="paint11_linear_857_13" x1="328.075" y1="356.506" x2="284.8" y2="356.506" gradientUnits="userSpaceOnUse">
<stop stop-color="#FEBBBA"/>
<stop offset="1" stop-color="#FF928E"/>
</linearGradient>
<linearGradient id="paint12_linear_857_13" x1="345.688" y1="335.755" x2="344.681" y2="320.116" gradientUnits="userSpaceOnUse">
<stop stop-color="#FEBBBA"/>
<stop offset="1" stop-color="#FF928E"/>
</linearGradient>
<linearGradient id="paint13_linear_857_13" x1="344.215" y1="322.522" x2="363.143" y2="286.417" gradientUnits="userSpaceOnUse">
<stop stop-color="#FEBBBA"/>
<stop offset="1" stop-color="#FF928E"/>
</linearGradient>
<linearGradient id="paint14_linear_857_13" x1="367.744" y1="302.017" x2="341.368" y2="307.292" gradientUnits="userSpaceOnUse">
<stop stop-color="#09005D"/>
<stop offset="1" stop-color="#1A0F91"/>
</linearGradient>
<linearGradient id="paint15_linear_857_13" x1="339.905" y1="320.262" x2="358.833" y2="284.157" gradientUnits="userSpaceOnUse">
<stop stop-color="#FEBBBA"/>
<stop offset="1" stop-color="#FF928E"/>
</linearGradient>
<linearGradient id="paint16_linear_857_13" x1="330.059" y1="356.005" x2="352.378" y2="363.301" gradientUnits="userSpaceOnUse">
<stop stop-color="#09005D"/>
<stop offset="1" stop-color="#1A0F91"/>
</linearGradient>
<linearGradient id="paint17_linear_857_13" x1="388.815" y1="352.349" x2="185.198" y2="335.275" gradientUnits="userSpaceOnUse">
<stop stop-color="#09005D"/>
<stop offset="1" stop-color="#1A0F91"/>
</linearGradient>
<linearGradient id="paint18_linear_857_13" x1="370.41" y1="345.573" x2="377.732" y2="356.563" gradientUnits="userSpaceOnUse">
<stop stop-color="#4F52FF"/>
<stop offset="1" stop-color="#4042E2"/>
</linearGradient>
<linearGradient id="paint19_linear_857_13" x1="144.95" y1="375.604" x2="144.24" y2="386.57" gradientUnits="userSpaceOnUse">
<stop stop-color="#09005D"/>
<stop offset="1" stop-color="#1A0F91"/>
</linearGradient>
<linearGradient id="paint20_linear_857_13" x1="145.226" y1="345.314" x2="142.742" y2="399.084" gradientUnits="userSpaceOnUse">
<stop stop-color="#4F52FF"/>
<stop offset="1" stop-color="#4042E2"/>
</linearGradient>
<linearGradient id="paint21_linear_857_13" x1="144.907" y1="330.696" x2="142.778" y2="375.622" gradientUnits="userSpaceOnUse">
<stop stop-color="#4F52FF"/>
<stop offset="1" stop-color="#4042E2"/>
</linearGradient>
<linearGradient id="paint22_linear_857_13" x1="145.868" y1="299.208" x2="142.669" y2="342.781" gradientUnits="userSpaceOnUse">
<stop stop-color="#09005D"/>
<stop offset="1" stop-color="#1A0F91"/>
</linearGradient>
<linearGradient id="paint23_linear_857_13" x1="102.522" y1="342.584" x2="91.2347" y2="390.896" gradientUnits="userSpaceOnUse">
<stop stop-color="#09005D"/>
<stop offset="1" stop-color="#1A0F91"/>
</linearGradient>
<linearGradient id="paint24_linear_857_13" x1="114.772" y1="345.447" x2="103.484" y2="393.758" gradientUnits="userSpaceOnUse">
<stop stop-color="#09005D"/>
<stop offset="1" stop-color="#1A0F91"/>
</linearGradient>
<linearGradient id="paint25_linear_857_13" x1="121.328" y1="346.978" x2="110.04" y2="395.29" gradientUnits="userSpaceOnUse">
<stop stop-color="#09005D"/>
<stop offset="1" stop-color="#1A0F91"/>
</linearGradient>
<linearGradient id="paint26_linear_857_13" x1="127.884" y1="348.51" x2="116.596" y2="396.822" gradientUnits="userSpaceOnUse">
<stop stop-color="#09005D"/>
<stop offset="1" stop-color="#1A0F91"/>
</linearGradient>
<linearGradient id="paint27_linear_857_13" x1="75.1262" y1="262.749" x2="86.4492" y2="252.358" gradientUnits="userSpaceOnUse">
<stop stop-color="#09005D"/>
<stop offset="1" stop-color="#1A0F91"/>
</linearGradient>
<linearGradient id="paint28_linear_857_13" x1="73.9592" y1="246.103" x2="101.42" y2="220.902" gradientUnits="userSpaceOnUse">
<stop stop-color="#09005D"/>
<stop offset="1" stop-color="#1A0F91"/>
</linearGradient>
<linearGradient id="paint29_linear_857_13" x1="54.065" y1="157.692" x2="96.9312" y2="254.891" gradientUnits="userSpaceOnUse">
<stop stop-color="#4F52FF"/>
<stop offset="1" stop-color="#4042E2"/>
</linearGradient>
<linearGradient id="paint30_linear_857_13" x1="121.846" y1="323.574" x2="166.844" y2="282.279" gradientUnits="userSpaceOnUse">
<stop stop-color="#4F52FF"/>
<stop offset="1" stop-color="#4042E2"/>
</linearGradient>
<linearGradient id="paint31_linear_857_13" x1="92.0324" y1="153.218" x2="75.0079" y2="128.536" gradientUnits="userSpaceOnUse">
<stop stop-color="#09005D"/>
<stop offset="1" stop-color="#1A0F91"/>
</linearGradient>
<linearGradient id="paint32_linear_857_13" x1="20.7647" y1="162.044" x2="128.322" y2="63.3385" gradientUnits="userSpaceOnUse">
<stop stop-color="#09005D"/>
<stop offset="1" stop-color="#1A0F91"/>
</linearGradient>
<linearGradient id="paint33_linear_857_13" x1="56.6664" y1="88.291" x2="85.0782" y2="131.982" gradientUnits="userSpaceOnUse">
<stop stop-color="#4F52FF"/>
<stop offset="1" stop-color="#4042E2"/>
</linearGradient>
<linearGradient id="paint34_linear_857_13" x1="6.47252" y1="180.932" x2="42.6075" y2="147.771" gradientUnits="userSpaceOnUse">
<stop stop-color="#4F52FF"/>
<stop offset="1" stop-color="#4042E2"/>
</linearGradient>
<linearGradient id="paint35_linear_857_13" x1="124.21" y1="58.8074" x2="198.117" y2="103.613" gradientUnits="userSpaceOnUse">
<stop stop-color="#09005D"/>
<stop offset="1" stop-color="#1A0F91"/>
</linearGradient>
<linearGradient id="paint36_linear_857_13" x1="166.331" y1="52.6013" x2="81.7222" y2="70.8393" gradientUnits="userSpaceOnUse">
<stop stop-color="#4F52FF"/>
<stop offset="1" stop-color="#4042E2"/>
</linearGradient>
<linearGradient id="paint37_linear_857_13" x1="122.77" y1="117.858" x2="199.806" y2="104.531" gradientUnits="userSpaceOnUse">
<stop stop-color="#4F52FF"/>
<stop offset="1" stop-color="#4042E2"/>
</linearGradient>
<linearGradient id="paint38_linear_857_13" x1="279.088" y1="134.641" x2="235.019" y2="107.194" gradientUnits="userSpaceOnUse">
<stop stop-color="#4F52FF"/>
<stop offset="1" stop-color="#4042E2"/>
</linearGradient>
<linearGradient id="paint39_linear_857_13" x1="261.43" y1="162.992" x2="217.361" y2="135.545" gradientUnits="userSpaceOnUse">
<stop stop-color="#4F52FF"/>
<stop offset="1" stop-color="#4042E2"/>
</linearGradient>
<linearGradient id="paint40_linear_857_13" x1="209.066" y1="110.597" x2="221.204" y2="117.955" gradientUnits="userSpaceOnUse">
<stop stop-color="#09005D"/>
<stop offset="1" stop-color="#1A0F91"/>
</linearGradient>
<linearGradient id="paint41_linear_857_13" x1="220.431" y1="104.484" x2="186.228" y2="115.758" gradientUnits="userSpaceOnUse">
<stop stop-color="#4F52FF"/>
<stop offset="1" stop-color="#4042E2"/>
</linearGradient>
<linearGradient id="paint42_linear_857_13" x1="246.598" y1="103.903" x2="199.502" y2="314.911" gradientUnits="userSpaceOnUse">
<stop stop-color="#4F52FF"/>
<stop offset="1" stop-color="#4042E2"/>
</linearGradient>
<linearGradient id="paint43_linear_857_13" x1="362.775" y1="156.559" x2="342.332" y2="248.153" gradientUnits="userSpaceOnUse">
<stop stop-color="#4F52FF"/>
<stop offset="1" stop-color="#4042E2"/>
</linearGradient>
<linearGradient id="paint44_linear_857_13" x1="309.417" y1="53.3458" x2="279.267" y2="188.426" gradientUnits="userSpaceOnUse">
<stop stop-color="#4F52FF"/>
<stop offset="1" stop-color="#4042E2"/>
</linearGradient>
</defs>
</svg>
