<svg width="65" height="47" viewBox="0 0 65 47" fill="none" xmlns="http://www.w3.org/2000/svg">
<path d="M9.984 46V4.4L13.632 8.176H0.512V1.2H18.304V46H9.984ZM45.879 46.64C42.3377 46.64 39.1377 45.744 36.279 43.952C33.463 42.16 31.2443 39.5573 29.623 36.144C28.0017 32.688 27.191 28.5067 27.191 23.6C27.191 18.6933 28.0017 14.5333 29.623 11.12C31.2443 7.664 33.463 5.04 36.279 3.248C39.1377 1.456 42.3377 0.559998 45.879 0.559998C49.463 0.559998 52.663 1.456 55.479 3.248C58.295 5.04 60.5137 7.664 62.135 11.12C63.799 14.5333 64.631 18.6933 64.631 23.6C64.631 28.5067 63.799 32.688 62.135 36.144C60.5137 39.5573 58.295 42.16 55.479 43.952C52.663 45.744 49.463 46.64 45.879 46.64ZM45.879 39.408C47.9697 39.408 49.783 38.8533 51.319 37.744C52.855 36.592 54.0497 34.8427 54.903 32.496C55.799 30.1493 56.247 27.184 56.247 23.6C56.247 19.9733 55.799 17.008 54.903 14.704C54.0497 12.3573 52.855 10.6293 51.319 9.52C49.783 8.368 47.9697 7.792 45.879 7.792C43.8737 7.792 42.0817 8.368 40.503 9.52C38.967 10.6293 37.751 12.3573 36.855 14.704C36.0017 17.008 35.575 19.9733 35.575 23.6C35.575 27.184 36.0017 30.1493 36.855 32.496C37.751 34.8427 38.967 36.592 40.503 37.744C42.0817 38.8533 43.8737 39.408 45.879 39.408Z" fill="url(#paint0_linear_843_62)"/>
<defs>
<linearGradient id="paint0_linear_843_62" x1="0" y1="-16" x2="124.821" y2="-5.18618" gradientUnits="userSpaceOnUse">
<stop stop-color="#0867F4"/>
<stop offset="1" stop-color="#072AC8"/>
</linearGradient>
</defs>
</svg>
