<svg width="115" height="47" viewBox="0 0 115 47" fill="none" xmlns="http://www.w3.org/2000/svg">
<path d="M16.896 46.64C13.7387 46.64 10.6453 46.192 7.616 45.296C4.62933 44.3573 2.112 43.0773 0.064 41.456L3.648 34.992C5.26933 36.3147 7.232 37.3813 9.536 38.192C11.84 39.0027 14.2507 39.408 16.768 39.408C19.7547 39.408 22.08 38.8107 23.744 37.616C25.408 36.3787 26.24 34.7147 26.24 32.624C26.24 30.576 25.472 28.9547 23.936 27.76C22.4 26.5653 19.9253 25.968 16.512 25.968H12.416V20.272L25.216 5.04L26.304 8.176H2.24V1.2H32.768V6.768L19.968 22L15.616 19.44H18.112C23.616 19.44 27.7333 20.6773 30.464 23.152C33.2373 25.584 34.624 28.72 34.624 32.56C34.624 35.0773 33.984 37.4027 32.704 39.536C31.424 41.6693 29.4613 43.3973 26.816 44.72C24.2133 46 20.9067 46.64 16.896 46.64ZM58.754 46.64C55.2127 46.64 52.0127 45.744 49.154 43.952C46.338 42.16 44.1193 39.5573 42.498 36.144C40.8767 32.688 40.066 28.5067 40.066 23.6C40.066 18.6933 40.8767 14.5333 42.498 11.12C44.1193 7.664 46.338 5.04 49.154 3.248C52.0127 1.456 55.2127 0.559998 58.754 0.559998C62.338 0.559998 65.538 1.456 68.354 3.248C71.17 5.04 73.3887 7.664 75.01 11.12C76.674 14.5333 77.506 18.6933 77.506 23.6C77.506 28.5067 76.674 32.688 75.01 36.144C73.3887 39.5573 71.17 42.16 68.354 43.952C65.538 45.744 62.338 46.64 58.754 46.64ZM58.754 39.408C60.8447 39.408 62.658 38.8533 64.194 37.744C65.73 36.592 66.9247 34.8427 67.778 32.496C68.674 30.1493 69.122 27.184 69.122 23.6C69.122 19.9733 68.674 17.008 67.778 14.704C66.9247 12.3573 65.73 10.6293 64.194 9.52C62.658 8.368 60.8447 7.792 58.754 7.792C56.7487 7.792 54.9567 8.368 53.378 9.52C51.842 10.6293 50.626 12.3573 49.73 14.704C48.8767 17.008 48.45 19.9733 48.45 23.6C48.45 27.184 48.8767 30.1493 49.73 32.496C50.626 34.8427 51.842 36.592 53.378 37.744C54.9567 38.8533 56.7487 39.408 58.754 39.408ZM96.113 38V9.2H102.961V38H96.113ZM84.785 26.8V20.4H114.289V26.8H84.785Z" fill="url(#paint0_linear_843_68)"/>
<defs>
<linearGradient id="paint0_linear_843_68" x1="0" y1="-16" x2="124.821" y2="-5.18618" gradientUnits="userSpaceOnUse">
<stop stop-color="#0867F4"/>
<stop offset="1" stop-color="#072AC8"/>
</linearGradient>
</defs>
</svg>
