<svg width="115" height="47" viewBox="0 0 115 47" fill="none" xmlns="http://www.w3.org/2000/svg">
<path d="M2.24 46V40.432L20.032 23.536C21.5253 22.128 22.6347 20.8907 23.36 19.824C24.0853 18.7573 24.5547 17.776 24.768 16.88C25.024 15.9413 25.152 15.0667 25.152 14.256C25.152 12.208 24.448 10.6293 23.04 9.52C21.632 8.368 19.5627 7.792 16.832 7.792C14.656 7.792 12.672 8.176 10.88 8.944C9.13067 9.712 7.616 10.8853 6.336 12.464L0.512 7.984C2.26133 5.63733 4.608 3.824 7.552 2.544C10.5387 1.22133 13.8667 0.559998 17.536 0.559998C20.7787 0.559998 23.5947 1.09333 25.984 2.16C28.416 3.184 30.272 4.656 31.552 6.576C32.8747 8.496 33.536 10.7787 33.536 13.424C33.536 14.8747 33.344 16.3253 32.96 17.776C32.576 19.184 31.8507 20.6773 30.784 22.256C29.7173 23.8347 28.16 25.6053 26.112 27.568L10.816 42.096L9.088 38.96H35.264V46H2.24ZM58.754 46.64C55.2127 46.64 52.0127 45.744 49.154 43.952C46.338 42.16 44.1193 39.5573 42.498 36.144C40.8767 32.688 40.066 28.5067 40.066 23.6C40.066 18.6933 40.8767 14.5333 42.498 11.12C44.1193 7.664 46.338 5.04 49.154 3.248C52.0127 1.456 55.2127 0.559998 58.754 0.559998C62.338 0.559998 65.538 1.456 68.354 3.248C71.17 5.04 73.3887 7.664 75.01 11.12C76.674 14.5333 77.506 18.6933 77.506 23.6C77.506 28.5067 76.674 32.688 75.01 36.144C73.3887 39.5573 71.17 42.16 68.354 43.952C65.538 45.744 62.338 46.64 58.754 46.64ZM58.754 39.408C60.8447 39.408 62.658 38.8533 64.194 37.744C65.73 36.592 66.9247 34.8427 67.778 32.496C68.674 30.1493 69.122 27.184 69.122 23.6C69.122 19.9733 68.674 17.008 67.778 14.704C66.9247 12.3573 65.73 10.6293 64.194 9.52C62.658 8.368 60.8447 7.792 58.754 7.792C56.7487 7.792 54.9567 8.368 53.378 9.52C51.842 10.6293 50.626 12.3573 49.73 14.704C48.8767 17.008 48.45 19.9733 48.45 23.6C48.45 27.184 48.8767 30.1493 49.73 32.496C50.626 34.8427 51.842 36.592 53.378 37.744C54.9567 38.8533 56.7487 39.408 58.754 39.408ZM96.113 38V9.2H102.961V38H96.113ZM84.785 26.8V20.4H114.289V26.8H84.785Z" fill="url(#paint0_linear_843_65)"/>
<defs>
<linearGradient id="paint0_linear_843_65" x1="0" y1="-16" x2="124.821" y2="-5.18618" gradientUnits="userSpaceOnUse">
<stop stop-color="#0867F4"/>
<stop offset="1" stop-color="#072AC8"/>
</linearGradient>
</defs>
</svg>
