<svg width="256" height="320" viewBox="0 0 256 320" fill="none" xmlns="http://www.w3.org/2000/svg">
<rect width="256" height="320" rx="8" fill="url(#paint0_linear_875_3132)"/>
<path d="M48.5722 153L51.8722 157.68L55.1722 153H58.2122L53.5122 159.72L58.5922 167H55.5122L51.8722 161.9L48.2522 167H45.2522L50.3122 159.82L45.5722 153H48.5722ZM64.6744 167.14C63.5944 167.14 62.621 166.907 61.7544 166.44C60.8877 165.973 60.2077 165.327 59.7144 164.5C59.2344 163.66 58.9944 162.713 58.9944 161.66C58.9944 160.607 59.2344 159.667 59.7144 158.84C60.2077 158.013 60.8877 157.367 61.7544 156.9C62.621 156.433 63.5944 156.2 64.6744 156.2C65.7677 156.2 66.7477 156.433 67.6144 156.9C68.481 157.367 69.1544 158.013 69.6344 158.84C70.1277 159.667 70.3744 160.607 70.3744 161.66C70.3744 162.713 70.1277 163.66 69.6344 164.5C69.1544 165.327 68.481 165.973 67.6144 166.44C66.7477 166.907 65.7677 167.14 64.6744 167.14ZM64.6744 165C65.5944 165 66.3544 164.693 66.9544 164.08C67.5544 163.467 67.8544 162.66 67.8544 161.66C67.8544 160.66 67.5544 159.853 66.9544 159.24C66.3544 158.627 65.5944 158.32 64.6744 158.32C63.7544 158.32 62.9944 158.627 62.3944 159.24C61.8077 159.853 61.5144 160.66 61.5144 161.66C61.5144 162.66 61.8077 163.467 62.3944 164.08C62.9944 164.693 63.7544 165 64.6744 165ZM81.9041 156.32V167H79.4041V162.86C78.3774 163.353 77.3041 163.6 76.1841 163.6C74.8107 163.6 73.7574 163.287 73.0241 162.66C72.2907 162.02 71.9241 161.047 71.9241 159.74V156.32H74.4241V159.58C74.4241 160.26 74.6241 160.767 75.0241 161.1C75.4241 161.433 75.9907 161.6 76.7241 161.6C77.6574 161.6 78.5507 161.4 79.4041 161V156.32H81.9041ZM95.3459 156.32L90.3459 167.86C89.8793 169.02 89.3126 169.833 88.6459 170.3C87.9793 170.78 87.1726 171.02 86.2259 171.02C85.6926 171.02 85.1659 170.933 84.6459 170.76C84.1259 170.587 83.6993 170.347 83.3659 170.04L84.3659 168.2C84.6059 168.427 84.8859 168.607 85.2059 168.74C85.5393 168.873 85.8726 168.94 86.2059 168.94C86.6459 168.94 87.0059 168.827 87.2859 168.6C87.5793 168.373 87.8459 167.993 88.0859 167.46L88.2659 167.04L83.6059 156.32H86.2059L89.5659 164.22L92.9459 156.32H95.3459ZM110.35 161.44C111.67 161.84 112.33 162.693 112.33 164C112.33 164.96 111.97 165.7 111.25 166.22C110.53 166.74 109.463 167 108.05 167H102.61V156.32H107.83C109.136 156.32 110.156 156.56 110.89 157.04C111.623 157.52 111.99 158.2 111.99 159.08C111.99 159.627 111.843 160.1 111.55 160.5C111.27 160.9 110.87 161.213 110.35 161.44ZM104.99 160.78H107.61C108.903 160.78 109.55 160.333 109.55 159.44C109.55 158.573 108.903 158.14 107.61 158.14H104.99V160.78ZM107.85 165.18C109.223 165.18 109.91 164.733 109.91 163.84C109.91 163.373 109.75 163.027 109.43 162.8C109.11 162.56 108.61 162.44 107.93 162.44H104.99V165.18H107.85ZM124.96 162.72H123.02V167H120.52V156.32H123.02V160.64H125.02L128.18 156.32H130.86L126.98 161.46L131.12 167H128.18L124.96 162.72ZM137.292 167.14C136.212 167.14 135.238 166.907 134.372 166.44C133.505 165.973 132.825 165.327 132.332 164.5C131.852 163.66 131.612 162.713 131.612 161.66C131.612 160.607 131.852 159.667 132.332 158.84C132.825 158.013 133.505 157.367 134.372 156.9C135.238 156.433 136.212 156.2 137.292 156.2C138.385 156.2 139.365 156.433 140.232 156.9C141.098 157.367 141.772 158.013 142.252 158.84C142.745 159.667 142.992 160.607 142.992 161.66C142.992 162.713 142.745 163.66 142.252 164.5C141.772 165.327 141.098 165.973 140.232 166.44C139.365 166.907 138.385 167.14 137.292 167.14ZM137.292 165C138.212 165 138.972 164.693 139.572 164.08C140.172 163.467 140.472 162.66 140.472 161.66C140.472 160.66 140.172 159.853 139.572 159.24C138.972 158.627 138.212 158.32 137.292 158.32C136.372 158.32 135.612 158.627 135.012 159.24C134.425 159.853 134.132 160.66 134.132 161.66C134.132 162.66 134.425 163.467 135.012 164.08C135.612 164.693 136.372 165 137.292 165ZM155.961 167V159.92L152.361 165.88H151.281L147.741 159.9V167H145.461V156.32H148.081L151.881 163L155.861 156.32H158.201L158.221 167H155.961ZM165.555 156.2C167.128 156.2 168.328 156.58 169.155 157.34C169.995 158.087 170.415 159.22 170.415 160.74V167H168.055V165.7C167.748 166.167 167.308 166.527 166.735 166.78C166.175 167.02 165.495 167.14 164.695 167.14C163.895 167.14 163.195 167.007 162.595 166.74C161.995 166.46 161.528 166.08 161.195 165.6C160.875 165.107 160.715 164.553 160.715 163.94C160.715 162.98 161.068 162.213 161.775 161.64C162.495 161.053 163.621 160.76 165.155 160.76H167.915V160.6C167.915 159.853 167.688 159.28 167.235 158.88C166.795 158.48 166.135 158.28 165.255 158.28C164.655 158.28 164.061 158.373 163.475 158.56C162.901 158.747 162.415 159.007 162.015 159.34L161.035 157.52C161.595 157.093 162.268 156.767 163.055 156.54C163.841 156.313 164.675 156.2 165.555 156.2ZM165.215 165.32C165.841 165.32 166.395 165.18 166.875 164.9C167.368 164.607 167.715 164.193 167.915 163.66V162.42H165.335C163.895 162.42 163.175 162.893 163.175 163.84C163.175 164.293 163.355 164.653 163.715 164.92C164.075 165.187 164.575 165.32 165.215 165.32ZM173.508 156.32H176.008V160.66H181.388V156.32H183.888V167H181.388V162.78H176.008V167H173.508V156.32ZM198.639 164.88V169.38H196.299V167H188.059V169.38H185.739V164.88H186.239C186.919 164.853 187.379 164.42 187.619 163.58C187.872 162.727 188.039 161.527 188.119 159.98L188.259 156.32H197.059V164.88H198.639ZM190.399 160.16C190.345 161.387 190.245 162.387 190.099 163.16C189.952 163.933 189.685 164.507 189.299 164.88H194.559V158.44H190.459L190.399 160.16ZM210.951 156.32L205.951 167.86C205.485 169.02 204.918 169.833 204.251 170.3C203.585 170.78 202.778 171.02 201.831 171.02C201.298 171.02 200.771 170.933 200.251 170.76C199.731 170.587 199.305 170.347 198.971 170.04L199.971 168.2C200.211 168.427 200.491 168.607 200.811 168.74C201.145 168.873 201.478 168.94 201.811 168.94C202.251 168.94 202.611 168.827 202.891 168.6C203.185 168.373 203.451 167.993 203.691 167.46L203.871 167.04L199.211 156.32H201.811L205.171 164.22L208.551 156.32H210.951Z" fill="white"/>
<defs>
<linearGradient id="paint0_linear_875_3132" x1="0" y1="0" x2="269.98" y2="12.2648" gradientUnits="userSpaceOnUse">
<stop stop-color="#0867F4"/>
<stop offset="1" stop-color="#072AC8"/>
</linearGradient>
</defs>
</svg>
