<svg width="109" height="66" viewBox="0 0 109 66" fill="none" xmlns="http://www.w3.org/2000/svg">
<path fill-rule="evenodd" clip-rule="evenodd" d="M90.4925 4.03918C89.8867 3.59947 89.3907 3.29682 89.2821 3.28982C87.5879 3.2051 86.4791 3.04083 85.0724 2.7105L84.9258 5.31093L84.6785 9.70039C85.2474 10.2008 85.8616 10.6869 86.485 11.1029C88.9954 12.7785 90.79 13.3132 93.7192 13.9368C93.7192 13.9368 93.811 15.2537 93.6776 16.6172L96.6286 16.7943C96.7595 15.1136 96.793 13.7009 96.793 13.7009C97.0492 13.6361 97.3365 13.5393 97.6429 13.4199L93.0045 13.1415L91.5854 11.4782L90.1666 9.81507L90.4925 4.03918ZM98.6829 12.967L93.3201 12.6451L92.0009 11.092L90.6818 9.53869L90.9717 4.39896C91.7701 5.01831 92.6289 5.78653 93.0172 6.40104C93.8704 5.18931 95.864 4.04434 95.864 4.04434C98.626 4.29528 99.5391 4.26383 101.803 3.79031L101.813 3.78815C103.11 3.51693 103.865 3.35901 105.049 2.78396C105.76 2.43866 106.184 2.04393 106.623 1.63477C107.058 1.22915 107.508 0.809366 108.269 0.40952C108.325 1.49272 108.029 3.05331 108.029 3.05331C108.029 3.05331 107.754 5.03983 107.19 6.17261C106.65 7.2585 106.151 7.77774 105.299 8.65664C104.369 9.61591 102.607 10.7964 102.607 10.7964C102.607 10.7964 100.557 12.0805 98.6829 12.967ZM96.4847 18.3315L93.4038 18.1466C93.3749 18.2446 93.3439 18.3397 93.3104 18.4312C92.8795 19.609 92.4621 20.2207 91.6705 21.2063C91.0406 21.99 90.5057 22.5384 89.8707 23.0875L92.1424 23.2238L92.7199 22.7099C93.2173 22.2672 93.3574 22.222 93.7283 22.3839C94.328 22.6456 94.7926 23.4182 94.6239 23.8732C94.4298 24.3966 93.8126 24.8699 93.3601 24.8427C93.1449 24.8298 92.7996 24.6233 92.593 24.3838C92.2345 23.9682 92.1016 23.9388 89.6812 23.7384L89.1353 23.6932C88.9986 23.8013 88.8561 23.9125 88.7065 24.0281C88.4805 24.2031 88.2745 24.3643 88.0815 24.5151C87.5304 24.9459 87.0866 25.2932 86.5857 25.6386L88.0504 25.7265L90.4096 28.4446L92.204 30.5113C92.3409 30.2962 92.4705 30.0848 92.5887 29.8824C93.6527 28.0611 94.2208 26.9532 94.8923 24.9624C95.5254 23.0841 95.8248 22.1598 96.1917 20.3104C96.3108 19.7111 96.4069 19.0271 96.4847 18.3315ZM91.3138 31.8389L89.7665 30.0805L87.4124 27.4057L84.28 27.2178L83.8799 27.1938C82.8016 27.7065 81.8874 27.9965 80.5047 28.4351C80.1462 28.5486 79.7563 28.6724 79.3241 28.8127C77.277 29.4757 74.134 29.4192 74.134 29.4192C74.134 29.4192 71.5313 29.5178 69.784 29.557C70.0421 30.0119 70.031 30.4754 69.7521 30.9603C69.3741 31.6176 68.9143 31.8289 68.1014 31.7189C67.478 31.6349 67.3759 31.6973 65.8243 33.1157L64.1997 34.6011L58.7111 34.2716L53.2222 33.9421L52.2621 32.7832L51.302 31.6238L51.4262 29.42L51.4743 28.5676C49.7855 28.4186 48.0702 28.2694 46.3372 28.1327C46.3334 28.2008 46.3296 28.2713 46.3253 28.344L46.2041 30.5154L47.7975 32.3773C49.2026 34.0186 49.4442 34.2308 49.8379 34.1657C50.4227 34.0697 51.285 34.8711 51.251 35.4786C51.221 36.0108 50.4839 36.6997 49.9845 36.6624C49.2671 36.6092 48.6569 35.714 48.8618 35.0154C48.9539 34.7005 48.6801 34.2927 47.3291 32.7332L45.6846 30.8343L45.8074 28.6554C45.8188 28.4505 45.8288 28.2638 45.8369 28.0932C42.9709 27.8594 40.0807 27.447 37.2212 27.0394C35.1728 26.7473 33.1403 26.4573 31.1437 26.237C27.6751 25.7676 24.6625 25.4957 21.8746 25.2438C19.5255 25.0319 17.3361 24.8341 15.1684 24.545C11.2819 24.1223 7.82036 24.0157 5.5357 24.0398C5.44217 24.0407 5.35049 24.042 5.26061 24.0436L7.57499 26.7384L9.14482 28.5513L24.7246 29.4884L40.304 30.4257L43.5042 34.1346L46.7043 37.8432L54.8278 38.3316L62.9513 38.8203L64.9025 37.0535L66.8535 35.2862L74.1448 35.7262L81.4367 36.1657L81.8434 35.5859C82.4039 34.7884 83.1463 34.4754 84.084 34.6416C85.8719 34.9586 86.4057 37.2492 84.9623 38.4103C84.4774 38.8008 84.2004 38.893 83.618 38.8578C82.5872 38.7962 82.1368 38.4959 81.7421 37.607L81.3992 36.8354L74.1767 36.4021L66.9542 35.9686L65.0281 37.7424L63.102 39.5162L54.7984 39.0178L46.4948 38.5197L43.3157 34.8078L40.1366 31.0959L24.5423 30.16L8.94765 29.2243L7.40182 27.414L4.64543 24.0599C2.93366 24.122 2.001 24.3061 1.69668 24.5382L1.68095 24.5502C1.32235 24.8234 0.62092 25.3578 0.341787 26.1259C0.232803 26.4257 0.142506 26.7773 0.0717938 27.1457L5.46218 27.4692L7.36078 29.6443L9.25938 31.8194L23.9308 32.6997L38.6022 33.58L42.1277 37.6513L45.6533 41.7224L55.5951 42.3227C61.0635 42.6527 65.5586 42.944 65.584 42.97C65.6094 42.9959 66.5082 44.017 67.5814 45.2386L69.5323 47.4597L73.0128 47.6686C73.6481 47.3916 74.2963 47.0849 75.1014 46.6551C76.4211 45.9508 78.1061 44.847 79.1829 44.1194C78.9777 43.69 78.5333 43.1811 77.9231 42.4816V42.4813L77.9226 42.4811C77.716 42.2443 77.4903 41.9857 77.2487 41.7011L75.899 40.1124L73.5106 39.9692L71.1223 39.8259L70.6282 40.3113C70.0286 40.9011 69.5485 40.9005 69.0391 40.3097C68.5444 39.737 68.5871 39.0865 69.153 38.567C69.6919 38.0724 70.3126 38.1862 70.7994 38.8689C71.108 39.3019 71.1596 39.3127 73.6324 39.4611L76.1509 39.6121L77.5824 41.2381L79.0139 42.864L79.7723 43.7173C80.0738 43.5097 80.2531 43.3832 80.2531 43.3832C80.2531 43.3832 83.9212 40.5843 85.0789 39.3943C86.2364 38.2043 88.7249 35.2805 89.7419 33.9765C89.7419 33.9765 90.5022 32.9978 91.3138 31.8389ZM68.3236 49.5913L66.401 47.3576L64.4519 45.0938L54.4903 44.4959L44.5285 43.8981L41.0926 39.9132L37.6567 35.9281L22.9563 35.0462L8.25588 34.1638L6.37372 31.99L4.49154 29.8157L-0.113281 29.5394C-0.107459 30.3481 -0.0801369 31.0208 0.0386527 31.7816L4.24771 32.034L6.32715 34.4776L8.40643 36.9211L22.608 37.7735L36.8095 38.6254L40.5621 42.973L44.3147 47.3205L53.7584 47.8873L63.2027 48.454L64.9689 50.5197C66.0905 50.2608 67.1821 49.9897 68.3236 49.5913ZM64.345 50.6619L62.876 48.9581L53.432 48.3919L43.988 47.8251L40.23 43.473L36.472 39.1205L22.2637 38.2681L8.05533 37.4154L6.03942 35.0586L4.02367 32.7019L0.166768 32.4705C0.180323 32.5338 0.194531 32.5981 0.209417 32.6632C0.406069 33.5246 0.539771 34.0873 0.80795 34.7473L3.16345 34.8886L5.51388 37.6065L7.86431 40.3238L11.1307 40.5197L14.3971 40.7159L15.9221 42.4765L17.447 44.2367L21.0555 44.51C23.04 44.6603 24.8216 44.7524 25.0144 44.7143C25.2071 44.6767 25.462 44.4559 25.5808 44.2238C25.6026 44.1811 25.6293 44.123 25.66 44.0554C25.797 43.7554 26.0167 43.2735 26.2713 43.1667C26.785 42.9508 27.694 43.044 28.2365 43.317C29.2883 43.8465 29.2279 46.0586 28.2365 46.7008C27.4929 47.1821 26.181 46.9876 25.5808 46.2497L25.2399 45.317L21.201 45.0749L17.1621 44.8321L15.6053 43.0213L14.0485 41.21L10.7712 41.0135L7.49397 40.8167L5.42225 38.363C4.28275 37.0132 3.22606 35.8273 3.07382 35.7278C3.01747 35.6911 2.35371 35.6221 1.16419 35.5267C1.17307 35.5446 1.18205 35.5624 1.19114 35.5805C1.83386 36.8516 2.53007 38.2078 3.51784 39.4294C3.84737 39.7754 4.1277 40.0835 4.39391 40.3759C5.02628 41.0711 5.57892 41.6786 6.52157 42.4978C7.42885 43.2862 8.04826 43.7894 9.00848 44.5176C10.1536 45.3854 10.3302 45.5121 12.0888 46.5116C12.4336 46.7076 12.727 46.8751 12.9871 47.0238C14.0538 47.6332 14.5618 47.9238 15.7679 48.537C17.8971 49.6205 20.6235 50.5857 20.6235 50.5857C20.6235 50.5857 23.3171 51.607 25.1252 51.9175C25.1252 51.9175 26.2511 53.6065 26.8039 54.5151C27.4635 55.5997 28.5013 57.2046 29.3307 58.1762C30.601 59.6646 32.2877 60.81 33.9403 61.8948C35.2757 62.7711 36.4099 63.2592 37.664 63.7986C38.1924 64.0259 38.7421 64.2624 39.3366 64.5408C41.1336 65.3821 44.3587 65.4343 44.3587 65.4343C44.3587 65.4343 42.2873 62.403 41.216 60.3294C41.1377 60.1776 41.0615 60.0313 40.9881 59.8894C40.1922 58.3551 39.6749 57.3576 39.1492 55.5954C38.7739 54.3357 38.4499 52.3113 38.4499 52.3113C38.4499 52.3113 42.209 52.8548 44.6327 52.9094C48.4077 52.9943 54.3283 52.4065 54.3283 52.4065C54.3283 52.4065 59.2578 51.873 62.8941 50.9984C63.3738 50.8827 63.8409 50.7765 64.3002 50.6721C64.3153 50.6689 64.3301 50.6654 64.345 50.6619ZM51.9713 28.6113L51.9238 29.4532L51.815 31.3789L52.6728 32.3603L53.5303 33.3419L58.7181 33.6786L63.906 34.0157L65.5162 32.5727C66.9612 31.2778 67.1135 31.0867 66.9993 30.7124C66.8791 30.3189 66.9123 29.9484 67.0465 29.6349C66.607 29.634 66.0953 29.6146 65.2748 29.5608C64.5899 29.5157 63.7154 29.4732 62.8366 29.4303C61.9167 29.3857 60.992 29.3408 60.2743 29.2921C57.7219 29.12 55.0552 28.884 52.3137 28.6416C52.2 28.6319 52.0855 28.6216 51.9713 28.6113ZM83.0994 8.16272L83.2503 5.48401L83.4371 2.17445C82.825 1.76174 81.3625 0.810663 80.2474 0.364258C80.2474 0.364258 80.356 2.63131 80.7083 4.12188C81.0677 5.26007 81.352 5.74055 81.8196 6.53123C81.8442 6.57261 81.869 6.6148 81.8947 6.65799C82.0963 6.99939 82.5256 7.54342 83.0994 8.16272ZM27.8717 45.8486C28.1449 45.3881 28.3007 44.3473 28.0175 44.0186C27.6827 43.6311 26.6931 43.9613 26.2713 44.3484C25.8487 44.7365 25.8575 45.3251 26.1706 45.8486C26.4747 46.3567 27.6025 46.3019 27.8717 45.8486Z" fill="white"/>
</svg>
