<svg width="24" height="25" viewBox="0 0 24 25" fill="none" xmlns="http://www.w3.org/2000/svg">
<path d="M19.5856 11.5006L15.2958 7.21079C15.2021 7.11783 15.1277 7.00723 15.0769 6.88537C15.0261 6.76351 15 6.63281 15 6.50079C15 6.36878 15.0261 6.23808 15.0769 6.11622C15.1277 5.99436 15.2021 5.88376 15.2958 5.79079C15.4832 5.60454 15.7366 5.5 16.0008 5.5C16.265 5.5 16.5184 5.60454 16.7058 5.79079L21.2958 10.3808C21.8576 10.9433 22.1732 11.7058 22.1732 12.5008C22.1732 13.2958 21.8576 14.0583 21.2958 14.6208L16.7058 19.2108C16.5184 19.397 16.265 19.5016 16.0008 19.5016C15.7366 19.5016 15.4832 19.397 15.2958 19.2108C15.2021 19.1178 15.1277 19.0072 15.0769 18.8854C15.0261 18.7635 15 18.6328 15 18.5008C15 18.3688 15.0261 18.2381 15.0769 18.1162C15.1277 17.9944 15.2021 17.8838 15.2958 17.7908L19.586 13.5006L2 13.5C1.44772 13.5 1 13.0523 1 12.5C1 11.9477 1.44772 11.5 2 11.5L19.5856 11.5006Z" fill="#072AC8"/>
</svg>
