<svg width="24" height="25" viewBox="0 0 24 25" fill="none" xmlns="http://www.w3.org/2000/svg">
<path d="M8.2101 5.78994C8.11638 5.8829 8.04198 5.9935 7.99121 6.11536C7.94044 6.23722 7.91431 6.36793 7.91431 6.49994C7.91431 6.63195 7.94044 6.76266 7.99121 6.88452C8.04198 7.00637 8.11638 7.11697 8.2101 7.20994L12.7901 11.7899C12.8838 11.8829 12.9582 11.9935 13.009 12.1154C13.0598 12.2372 13.0859 12.3679 13.0859 12.4999C13.0859 12.632 13.0598 12.7627 13.009 12.8845C12.9582 13.0064 12.8838 13.117 12.7901 13.2099L8.2101 17.7899C8.11638 17.8829 8.04198 17.9935 7.99121 18.1154C7.94044 18.2372 7.91431 18.3679 7.91431 18.4999C7.91431 18.632 7.94044 18.7627 7.99121 18.8845C8.04198 19.0064 8.11638 19.117 8.2101 19.2099C8.39747 19.3962 8.65092 19.5007 8.9151 19.5007C9.17929 19.5007 9.43274 19.3962 9.6201 19.2099L14.2101 14.6199C14.7719 14.0574 15.0875 13.2949 15.0875 12.4999C15.0875 11.7049 14.7719 10.9424 14.2101 10.3799L9.6201 5.78994C9.43274 5.60369 9.17929 5.49914 8.9151 5.49914C8.65092 5.49914 8.39747 5.60369 8.2101 5.78994Z" fill="#121212"/>
</svg>
